<?xml version="1.0" standalone="no"?>
<!DOCTYPE svg PUBLIC "-//W3C//DTD SVG 1.1//EN" "http://www.w3.org/Graphics/SVG/1.1/DTD/svg11.dtd" >
<svg>
<metadata>
Created by FontForge 20090622 at Wed May 13 06:25:10 2020
 By deploy user
Copyright (c) 2013 by Hannes von Doehren. All rights reserved.
</metadata>
<defs>
<font id="NiveauGroteskRegular" horiz-adv-x="520" >
  <font-face 
    font-family="Niveau Grotesk Regular"
    font-weight="400"
    font-stretch="normal"
    units-per-em="1000"
    panose-1="2 0 0 0 0 0 0 0 0 0"
    ascent="750"
    descent="-250"
    x-height="487"
    cap-height="680"
    bbox="-104 -215 1130 906"
    underline-thickness="50"
    underline-position="-50"
    unicode-range="U+0020-U+FB02"
  />
<missing-glyph horiz-adv-x="833" 
d="M69 49l301 301l-301 301l20 20l301 -301l301 301l20 -20l-301 -301l301 -301l-20 -20l-301 301l-301 -301z" />
    <glyph glyph-name="fi" unicode="fi" horiz-adv-x="566" 
d="M306 487v-72h-122v-415h-83v415h-76v72h76v61q0 72 41 112t112 40q34 0 58 -8v-85q-22 11 -56 11q-72 0 -72 -75v-56h122zM497 487v-487h-83v487h83zM401 640q0 23 15.5 39t38.5 16q25 0 40.5 -15.5t15.5 -39.5q0 -23 -15.5 -38.5t-40.5 -15.5q-23 0 -38.5 15.5
t-15.5 38.5z" />
    <glyph glyph-name="fl" unicode="fl" horiz-adv-x="564" 
d="M306 487v-72h-122v-415h-83v415h-76v72h76v61q0 72 41 112t112 40q34 0 58 -8v-85q-22 11 -56 11q-72 0 -72 -75v-56h122zM493 690v-690h-83v690h83z" />
    <glyph glyph-name=".notdef" horiz-adv-x="833" 
d="M69 49l301 301l-301 301l20 20l301 -301l301 301l20 -20l-301 -301l301 -301l-20 -20l-301 301l-301 -301z" />
    <glyph glyph-name=".null" horiz-adv-x="0" 
 />
    <glyph glyph-name="nonmarkingreturn" horiz-adv-x="333" 
 />
    <glyph glyph-name="space" unicode=" " horiz-adv-x="234" 
 />
    <glyph glyph-name="exclam" unicode="!" horiz-adv-x="250" 
d="M156 215h-62l-16 465h94zM61 53q0 28 18 46t45 18q28 0 46 -18t18 -46q0 -27 -18 -45t-46 -18q-27 0 -45 18t-18 45z" />
    <glyph glyph-name="quotedbl" unicode="&#x22;" horiz-adv-x="374" 
d="M141 465h-78l-4 215h86zM310 465h-78l-4 215h86z" />
    <glyph glyph-name="numbersign" unicode="#" horiz-adv-x="655" 
d="M312 0l57 194h-172l-58 -194h-61l57 194h-95v52h111l55 185h-136v52h151l59 197h62l-59 -197h172l59 197h62l-59 -197h98v-52h-114l-55 -185h139v-52h-154l-58 -194h-61zM267 431l-55 -185h173l55 185h-173z" />
    <glyph glyph-name="dollar" unicode="$" horiz-adv-x="474" 
d="M406 653v-97q-66 52 -144 53v-223l58 -36q62 -39 88.5 -80t26.5 -95q0 -69 -45 -120t-128 -62v-110h-40v107h-2q-87 0 -167 41v101q73 -61 165 -61h4v230l-69 44q-57 35 -81.5 75t-24.5 92q0 66 43.5 116t131.5 60v90h40v-88q83 -1 144 -37zM270 271l-8 5v-200
q39 9 60.5 35.5t21.5 59.5q0 54 -74 100zM139 514q0 -50 63 -90l20 -13v194q-40 -7 -61.5 -31.5t-21.5 -59.5z" />
    <glyph glyph-name="percent" unicode="%" horiz-adv-x="832" 
d="M233 0l302 680h66l-303 -680h-65zM187 628q-38 0 -60 -22t-22 -56v-128q0 -34 22 -56t60 -22t60 22t22 56v128q0 34 -22 56t-60 22zM187 690q63 0 104.5 -39t41.5 -99v-132q0 -60 -41.5 -99.5t-104.5 -39.5t-104.5 39.5t-41.5 99.5v132q0 60 41.5 99t104.5 39zM645 337
q-37 0 -59 -22t-22 -56v-129q0 -34 22 -56t59 -22t59.5 22t22.5 56v129q0 34 -22.5 56t-59.5 22zM645 399q63 0 104.5 -39t41.5 -99v-132q0 -60 -41.5 -99.5t-104.5 -39.5q-62 0 -103.5 39.5t-41.5 99.5v132q0 60 41.5 99t103.5 39z" />
    <glyph glyph-name="ampersand" unicode="&#x26;" horiz-adv-x="678" 
d="M35 189q0 46 14.5 82.5t42 62.5t55 43.5t66.5 34.5l-5 6q-57 71 -57 125q0 62 45.5 104.5t114.5 42.5q71 0 112 -43.5t41 -104.5q0 -57 -34.5 -93t-97.5 -66l134 -161l163 184v-117l-112 -129l133 -160h-105l-80 99q-107 -109 -217 -109q-102 0 -157.5 60.5t-55.5 138.5z
M248 70q78 0 166 92l-153 190q-67 -31 -103.5 -66t-36.5 -93q0 -47 34.5 -85t92.5 -38zM279 448l4 -6q49 22 74.5 43.5t25.5 53.5q0 30 -19 52.5t-52 22.5q-36 0 -57.5 -21t-21.5 -54q0 -31 46 -91z" />
    <glyph glyph-name="quotesingle" unicode="'" horiz-adv-x="204" 
d="M141 465h-78l-4 203h86z" />
    <glyph glyph-name="parenleft" unicode="(" horiz-adv-x="256" 
d="M109 242q0 -241 128 -415l-48 -33q-67 84 -108.5 203t-41.5 245q0 127 41.5 246t108.5 203l48 -33q-128 -174 -128 -416z" />
    <glyph glyph-name="parenright" unicode=")" horiz-adv-x="256" 
d="M147 243q0 241 -128 415l48 33q67 -84 108.5 -203t41.5 -245q0 -127 -41.5 -246t-108.5 -203l-48 33q128 174 128 416z" />
    <glyph glyph-name="asterisk" unicode="*" horiz-adv-x="364" 
d="M70 634l96 -54v110h35v-110l94 55l18 -31l-95 -55l95 -54l-18 -30l-94 54v-108h-35v107l-95 -54l-18 30l95 55l-95 55z" />
    <glyph glyph-name="plus" unicode="+" 
d="M37 253v66h186v191h71v-191h188v-66h-188v-191h-71v191h-186z" />
    <glyph glyph-name="comma" unicode="," horiz-adv-x="250" 
d="M134 -130h-76l31 240h95z" />
    <glyph glyph-name="hyphen" unicode="-" horiz-adv-x="376" 
d="M314 246h-253v78h253v-78z" />
    <glyph glyph-name="period" unicode="." horiz-adv-x="236" 
d="M54 53q0 28 18 46t46 18q27 0 45.5 -18t18.5 -46q0 -27 -18.5 -45t-45.5 -18q-28 0 -46 18t-18 45z" />
    <glyph glyph-name="slash" unicode="/" horiz-adv-x="422" 
d="M27 0l302 680h66l-303 -680h-65z" />
    <glyph glyph-name="zero" unicode="0" horiz-adv-x="585" 
d="M292 606q-65 0 -104 -42t-39 -107v-234q0 -65 39 -107t104 -42q66 0 105 42t39 107v234q0 65 -39 107t-105 42zM292 690q100 0 165 -65.5t65 -164.5v-239q0 -100 -65 -165.5t-165 -65.5q-99 0 -164 65.5t-65 165.5v239q0 99 65 164.5t164 65.5z" />
    <glyph glyph-name="one" unicode="1" horiz-adv-x="458" 
d="M38 0v82h171v516h-153v82h239v-598h145v-82h-402z" />
    <glyph glyph-name="two" unicode="2" horiz-adv-x="461" 
d="M42 0v76l210 265q69 88 69 150q0 52 -31.5 82.5t-83.5 30.5q-86 0 -150 -69v100q64 55 155 55q93 0 145.5 -52t52.5 -134q0 -43 -13 -81.5t-27.5 -61.5t-41.5 -57l-176 -222h258v-82h-367z" />
    <glyph glyph-name="three" unicode="3" horiz-adv-x="465" 
d="M104 314v82h99q46 0 76 30t30 74q0 47 -31.5 75.5t-83.5 28.5q-81 0 -132 -40v94q55 32 135 32q90 0 145.5 -51t55.5 -129q0 -55 -25.5 -96t-65.5 -58q50 -18 80 -63.5t30 -107.5q0 -86 -61.5 -140.5t-155.5 -54.5q-84 0 -146 35v98q59 -47 142 -47q57 0 94.5 33t37.5 86
q0 51 -35 85t-89 34h-100z" />
    <glyph glyph-name="four" unicode="4" horiz-adv-x="545" 
d="M512 147h-92v-147h-86v147h-311v74l311 459h86v-451h92v-82zM116 229h218v324z" />
    <glyph glyph-name="five" unicode="5" horiz-adv-x="492" 
d="M434 598h-229l-22 -174h22q108 0 172.5 -57t64.5 -153q0 -106 -65.5 -165t-164.5 -59q-92 0 -169 52v107q77 -73 165 -73q61 0 103 38t42 100q0 64 -47 97t-123 33h-91l36 336h306v-82z" />
    <glyph glyph-name="six" unicode="6" horiz-adv-x="549" 
d="M390 680l-150 -225q16 4 37 4q99 0 168 -65t69 -167q0 -101 -68 -169t-169 -68t-169 68t-68 169q0 77 46 146l201 307h103zM426 227q0 63 -43 107t-106 44t-106 -44t-43 -107q0 -64 43 -107.5t106 -43.5q64 0 106.5 43.5t42.5 107.5z" />
    <glyph glyph-name="seven" unicode="7" horiz-adv-x="413" 
d="M395 606l-238 -606h-98l243 598h-270v82h363v-74z" />
    <glyph glyph-name="eight" unicode="8" horiz-adv-x="526" 
d="M70 509q0 77 55.5 129t136.5 52q82 0 138 -52t56 -129q0 -48 -24 -86.5t-65 -59.5q51 -23 81.5 -68t30.5 -103q0 -87 -62 -144.5t-155 -57.5q-91 0 -153 57.5t-62 144.5q0 58 30 103t81 68q-41 21 -64.5 59t-23.5 87zM130 193q0 -53 38.5 -89t93.5 -36q57 0 95.5 36
t38.5 89t-38 90.5t-96 37.5q-55 0 -93.5 -37.5t-38.5 -90.5zM152 508q0 -44 31 -74.5t80 -30.5q48 0 79.5 30t31.5 75t-31.5 74.5t-79.5 29.5t-79.5 -29.5t-31.5 -74.5z" />
    <glyph glyph-name="nine" unicode="9" horiz-adv-x="548" 
d="M158 0l149 219q-12 -2 -36 -2q-99 0 -168 67t-69 169q0 101 68 169t169 68t169 -68t68 -169q0 -76 -45 -146l-202 -307h-103zM122 453q0 -63 43 -107t106 -44t106 44t43 107q0 64 -43 107.5t-106 43.5q-64 0 -106.5 -43.5t-42.5 -107.5z" />
    <glyph glyph-name="colon" unicode=":" horiz-adv-x="238" 
d="M60 49q0 26 17 43t42 17t42 -17t17 -43q0 -25 -17 -42t-42 -17t-42 17t-17 42zM60 424q0 26 16.5 43t42.5 17t42.5 -17t16.5 -43t-17 -42.5t-42 -16.5t-42 16.5t-17 42.5z" />
    <glyph glyph-name="semicolon" unicode=";" horiz-adv-x="255" 
d="M123 -129h-70l31 229h87zM77 424q0 26 16.5 43t42.5 17t43 -17t17 -43q0 -25 -17 -42t-43 -17t-42.5 16.5t-16.5 42.5z" />
    <glyph glyph-name="less" unicode="&#x3c;" 
d="M25 252v66l445 175v-70l-361 -138l361 -138v-70z" />
    <glyph glyph-name="equal" unicode="=" 
d="M37 435h445v-66h-445v66zM37 202h445v-66h-445v66z" />
    <glyph glyph-name="greater" unicode="&#x3e;" 
d="M494 318v-66l-445 -175v70l361 138l-361 138v70z" />
    <glyph glyph-name="question" unicode="?" horiz-adv-x="425" 
d="M222 215h-86q0 50 13.5 78t48.5 59l56 51q45 40 45 101q0 43 -30.5 71.5t-93.5 28.5q-33 0 -71 -15t-64 -40v105q62 36 142 36q104 0 155 -53t51 -127q0 -86 -65 -148l-56 -52q-45 -42 -45 -95zM115 53q0 28 18 46t45 18q28 0 46 -18t18 -46q0 -27 -18 -45t-46 -18
q-27 0 -45 18t-18 45z" />
    <glyph glyph-name="at" unicode="@" horiz-adv-x="814" 
d="M413 -95q-158 0 -261.5 103.5t-103.5 261.5t103.5 261.5t261.5 103.5q157 0 261 -97.5t104 -238.5q0 -96 -42.5 -148.5t-102.5 -52.5q-76 0 -100 68q-46 -70 -134 -70q-73 0 -120.5 50.5t-47.5 124.5q0 75 47.5 125t120.5 50q78 0 125 -57v46h49v-207q0 -81 63 -81
q38 0 64 38t26 113q0 119 -90 204t-223 85q-134 0 -223 -91t-89 -226t89 -226t223 -91q122 0 208 75l30 -37q-99 -86 -238 -86zM282 271q0 -53 34 -90t87 -37q52 0 86 37t34 90t-33.5 89.5t-86.5 36.5t-87 -36.5t-34 -89.5z" />
    <glyph glyph-name="A" unicode="A" horiz-adv-x="631" 
d="M523 0l-71 190h-275l-69 -190h-97l256 680h97l256 -680h-97zM315 567l-109 -294h218z" />
    <glyph glyph-name="B" unicode="B" horiz-adv-x="560" 
d="M88 0v680h202q88 0 145.5 -48t57.5 -128q0 -111 -96 -153q54 -20 86 -62.5t32 -103.5q0 -86 -61 -135.5t-155 -49.5h-211zM425 194q0 56 -36 85.5t-90 29.5h-125v-227h125q55 0 90.5 28.5t35.5 83.5zM404 494q0 51 -32.5 77.5t-82.5 26.5h-115v-208h115q50 0 82.5 26.5
t32.5 77.5z" />
    <glyph glyph-name="C" unicode="C" horiz-adv-x="618" 
d="M571 137v-100q-80 -47 -179 -47q-149 0 -249.5 100.5t-100.5 249.5t100.5 249.5t249.5 100.5q99 0 179 -47v-101q-74 63 -179 63q-111 0 -185.5 -77t-74.5 -188q0 -112 74.5 -188.5t185.5 -76.5q106 0 179 62z" />
    <glyph glyph-name="D" unicode="D" horiz-adv-x="705" 
d="M88 0v680h240q151 0 241.5 -94.5t90.5 -245.5t-90.5 -245.5t-241.5 -94.5h-240zM327 598h-153v-516h153q112 0 178 72t66 186q0 113 -66 185.5t-178 72.5z" />
    <glyph glyph-name="E" unicode="E" horiz-adv-x="519" 
d="M454 0h-366v680h366v-82h-280v-215h260v-82h-260v-219h280v-82z" />
    <glyph glyph-name="F" unicode="F" horiz-adv-x="498" 
d="M434 274h-260v-274h-86v680h366v-82h-280v-242h260v-82z" />
    <glyph glyph-name="G" unicode="G" horiz-adv-x="743" 
d="M584 650v-95q-82 50 -185 50q-116 0 -191.5 -75.5t-75.5 -189.5q0 -110 71.5 -187.5t179.5 -77.5q106 0 172 65t66 160q0 19 -2 33h-241v78h328q8 -37 8 -89q0 -142 -90 -237t-243 -95q-146 0 -242.5 100.5t-96.5 249.5q0 150 101 250t256 100q110 0 185 -40z" />
    <glyph glyph-name="H" unicode="H" horiz-adv-x="737" 
d="M563 0v301h-389v-301h-86v680h86v-297h389v297h86v-680h-86z" />
    <glyph glyph-name="I" unicode="I" horiz-adv-x="263" 
d="M88 0v680h86v-680h-86z" />
    <glyph glyph-name="J" unicode="J" horiz-adv-x="440" 
d="M272 680h86v-477q0 -104 -49.5 -158.5t-146.5 -54.5q-41 0 -80 13t-60 30v98q60 -57 130 -57q55 0 87.5 33.5t32.5 97.5v475z" />
    <glyph glyph-name="K" unicode="K" horiz-adv-x="551" 
d="M88 0v680h86v-333l254 333h103l-210 -278l220 -402h-102l-178 330l-87 -109v-221h-86z" />
    <glyph glyph-name="L" unicode="L" horiz-adv-x="471" 
d="M454 0h-366v680h86v-598h280v-82z" />
    <glyph glyph-name="M" unicode="M" horiz-adv-x="865" 
d="M471 0h-77l-220 517v-517h-86v680h102l243 -571l242 571h101v-680h-86v517z" />
    <glyph glyph-name="N" unicode="N" horiz-adv-x="714" 
d="M539 0l-361 488v-488h-86v603l-47 70v7h104l390 -532v532h86v-680h-86z" />
    <glyph glyph-name="O" unicode="O" horiz-adv-x="785" 
d="M42 340q0 149 100.5 249.5t249.5 100.5t249.5 -100.5t100.5 -249.5t-100.5 -249.5t-249.5 -100.5t-249.5 100.5t-100.5 249.5zM132 340q0 -112 74.5 -188.5t185.5 -76.5t186 76.5t75 188.5t-75 188.5t-186 76.5t-185.5 -77t-74.5 -188z" />
    <glyph glyph-name="P" unicode="P" horiz-adv-x="540" 
d="M88 0v680h200q97 0 155.5 -54.5t58.5 -149.5t-58.5 -149.5t-155.5 -54.5h-114v-272h-86zM413 475q0 60 -34.5 91.5t-90.5 31.5h-114v-244h114q56 0 90.5 30.5t34.5 90.5z" />
    <glyph glyph-name="Q" unicode="Q" horiz-adv-x="798" 
d="M42 340q0 149 100.5 249.5t249.5 100.5t249.5 -100.5t100.5 -249.5q0 -130 -79 -225l74 -73l-59 -60l-77 76q-90 -68 -209 -68q-149 0 -249.5 100.5t-100.5 249.5zM132 340q0 -112 74.5 -188.5t185.5 -76.5q82 0 143 48l-140 142l59 60l143 -145q56 69 56 160
q0 112 -75 188.5t-186 76.5t-185.5 -77t-74.5 -188z" />
    <glyph glyph-name="R" unicode="R" horiz-adv-x="574" 
d="M88 0v680h201q97 0 155.5 -51t58.5 -140q0 -70 -38.5 -114.5t-101.5 -59.5q62 -29 110 -113t66 -202h-89q-23 126 -80.5 205t-124.5 79h-71v-284h-86zM414 481q0 54 -35 85.5t-90 31.5h-115v-232h115q55 0 90 30.5t35 84.5z" />
    <glyph glyph-name="S" unicode="S" horiz-adv-x="480" 
d="M409 653v-97q-68 53 -148 53q-55 0 -87 -26t-32 -69q0 -50 63 -90l118 -74q62 -39 88.5 -80t26.5 -95q0 -78 -56 -131.5t-159 -53.5q-87 0 -167 41v101q73 -61 165 -61q59 0 92.5 29t33.5 71q0 54 -74 100l-117 74q-57 35 -81.5 75t-24.5 92q0 73 53 125.5t160 52.5
q83 0 146 -37z" />
    <glyph glyph-name="T" unicode="T" horiz-adv-x="484" 
d="M200 0v598h-182v82h448v-82h-180v-598h-86z" />
    <glyph glyph-name="U" unicode="U" horiz-adv-x="655" 
d="M488 680h86v-437q0 -116 -66.5 -184.5t-179.5 -68.5q-114 0 -180.5 68.5t-66.5 184.5v437h86v-443q0 -73 44 -118t117 -45q72 0 116 45t44 118v443z" />
    <glyph glyph-name="V" unicode="V" horiz-adv-x="631" 
d="M267 0l-256 680h97l207 -578l208 578h97l-256 -680h-97z" />
    <glyph glyph-name="W" unicode="W" horiz-adv-x="969" 
d="M216 0l-197 680h96l155 -569l183 497l-23 72h89l181 -569l154 569h96l-196 -680h-97l-162 492l-183 -492h-96z" />
    <glyph glyph-name="X" unicode="X" horiz-adv-x="580" 
d="M290 281l-177 -281h-104l222 348l-212 332h104l167 -265l167 265h104l-212 -332l222 -348h-103z" />
    <glyph glyph-name="Y" unicode="Y" horiz-adv-x="563" 
d="M238 0v301l-225 379h98l170 -293l171 293h99l-227 -380v-300h-86z" />
    <glyph glyph-name="Z" unicode="Z" horiz-adv-x="482" 
d="M442 606l-304 -524h304v-82h-407v74l300 524h-290v82h397v-74z" />
    <glyph glyph-name="bracketleft" unicode="[" horiz-adv-x="275" 
d="M77 690h176v-56h-116v-783h116v-56h-176v895z" />
    <glyph glyph-name="backslash" unicode="\" horiz-adv-x="422" 
d="M93 680l302 -680h-65l-303 680h66z" />
    <glyph glyph-name="bracketright" unicode="]" horiz-adv-x="275" 
d="M198 -205h-176v56h116v783h-116v56h176v-895z" />
    <glyph glyph-name="asciicircum" unicode="^" horiz-adv-x="455" 
d="M228 702l180 -164l-43 -49l-138 127l-137 -127l-42 49z" />
    <glyph glyph-name="underscore" unicode="_" horiz-adv-x="522" 
d="M461 -86h-400v56h400v-56z" />
    <glyph glyph-name="grave" unicode="`" horiz-adv-x="600" 
d="M221 696h74l76 -147h-66z" />
    <glyph glyph-name="a" unicode="a" horiz-adv-x="475" 
d="M83 381v82q68 34 140 34q87 0 137.5 -46.5t50.5 -140.5v-310h-83v53q-43 -63 -128 -63q-78 0 -124 46.5t-46 115.5q0 68 48.5 114t122.5 46q38 0 73 -16.5t54 -40.5v56q0 55 -32.5 82.5t-80.5 27.5q-67 0 -132 -40zM113 152q0 -41 31.5 -69.5t75.5 -28.5t75.5 28.5
t31.5 69.5q0 39 -32 67.5t-75 28.5q-44 0 -75.5 -28t-31.5 -68z" />
    <glyph glyph-name="b" unicode="b" horiz-adv-x="616" 
d="M152 97v-97h-83v690h83v-301q27 50 75.5 79t109.5 29q104 0 172.5 -73t68.5 -180q0 -108 -68.5 -181t-172.5 -73q-61 0 -109.5 28.5t-75.5 78.5zM152 244q0 -72 49 -122t121 -50t120.5 50t48.5 122q0 71 -49 121t-120 50q-72 0 -121 -50t-49 -121z" />
    <glyph glyph-name="c" unicode="c" horiz-adv-x="461" 
d="M419 114v-90q-55 -34 -126 -34q-110 0 -182.5 72.5t-72.5 181.5q0 108 72.5 180.5t182.5 72.5q70 0 126 -33v-92q-53 43 -126 43q-72 0 -121 -49.5t-49 -121.5t49 -122.5t121 -50.5q73 0 126 43z" />
    <glyph glyph-name="d" unicode="d" horiz-adv-x="616" 
d="M463 0v97q-27 -50 -75 -78.5t-108 -28.5q-105 0 -173.5 72.5t-68.5 181.5q0 107 68.5 180t173.5 73q60 0 108 -29t75 -79v301h84v-690h-84zM463 244q0 71 -48.5 121t-120.5 50t-121 -50t-49 -121q0 -72 49 -122t121 -50t120.5 50t48.5 122z" />
    <glyph glyph-name="e" unicode="e" horiz-adv-x="546" 
d="M512 213h-390q8 -65 54.5 -106t115.5 -41q97 0 175 61v-86q-79 -51 -181 -51q-106 0 -177 72t-71 182q0 107 69.5 180t173.5 73q103 0 169 -69t66 -170q0 -25 -4 -45zM281 425q-65 0 -109.5 -42t-49.5 -104h313q-1 65 -45 105.5t-109 40.5z" />
    <glyph glyph-name="f" unicode="f" horiz-adv-x="320" 
d="M306 487v-72h-122v-415h-83v415h-76v72h76v61q0 72 41 112t112 40q34 0 58 -8v-85q-22 11 -56 11q-72 0 -72 -75v-56h122z" />
    <glyph glyph-name="g" unicode="g" horiz-adv-x="612" 
d="M458 487h83v-450q0 -117 -69 -184.5t-184 -67.5q-98 0 -171 42v90q74 -53 172 -53q73 0 121 45.5t48 117.5v79q-27 -47 -74.5 -74.5t-108.5 -27.5q-102 0 -169.5 70.5t-67.5 175.5t67.5 176t169.5 71q61 0 108.5 -28.5t74.5 -77.5v96zM454 250q0 70 -46.5 117t-117.5 47
q-69 0 -116 -47.5t-47 -116.5q0 -70 46.5 -117.5t116.5 -47.5q71 0 117.5 47.5t46.5 117.5z" />
    <glyph glyph-name="h" unicode="h" horiz-adv-x="545" 
d="M152 690v-280q45 87 146 87q83 0 133 -54t50 -139v-304h-83v284q0 58 -33.5 94.5t-89.5 36.5q-55 0 -88 -34t-35 -91v-290h-83v690h83z" />
    <glyph glyph-name="i" unicode="i" horiz-adv-x="221" 
d="M152 487v-487h-83v487h83zM56 640q0 23 15.5 39t38.5 16q24 0 40 -15.5t16 -39.5q0 -23 -15.5 -38.5t-40.5 -15.5q-23 0 -38.5 15.5t-15.5 38.5z" />
    <glyph glyph-name="j" unicode="j" horiz-adv-x="221" 
d="M69 -72v559h83v-560q0 -71 -34 -106.5t-93 -35.5q-29 0 -49 10v85q22 -13 43 -13q50 0 50 61zM56 640q0 23 16 39t39 16q24 0 39.5 -16t15.5 -39t-15.5 -38.5t-39.5 -15.5q-23 0 -39 15.5t-16 38.5z" />
    <glyph glyph-name="k" unicode="k" horiz-adv-x="463" 
d="M69 0v690h83v-435l196 232h100l-162 -195l166 -292h-98l-130 233l-72 -84v-149h-83z" />
    <glyph glyph-name="l" unicode="l" horiz-adv-x="224" 
d="M153 690v-690h-83v690h83z" />
    <glyph glyph-name="m" unicode="m" horiz-adv-x="828" 
d="M152 487v-67q43 77 135 77q55 0 96.5 -26.5t60.5 -74.5q17 47 55.5 74t93.5 27q74 0 122.5 -50t48.5 -132v-315h-83v295q0 57 -30.5 88.5t-80.5 31.5t-81 -32t-31 -88v-295h-83v295q0 57 -30.5 88.5t-79.5 31.5q-50 0 -80.5 -29.5t-32.5 -83.5v-302h-83v487h83z" />
    <glyph glyph-name="n" unicode="n" horiz-adv-x="545" 
d="M152 487v-77q45 87 146 87q83 0 133 -54t50 -139v-304h-83v284q0 58 -33.5 94.5t-89.5 36.5q-55 0 -88 -34t-35 -91v-290h-83v487h83z" />
    <glyph glyph-name="o" unicode="o" horiz-adv-x="581" 
d="M37 244q0 106 73.5 179.5t179.5 73.5q108 0 180.5 -73t72.5 -180q0 -108 -72.5 -181t-180.5 -73q-107 0 -180 73t-73 181zM123 244q0 -72 48 -122.5t119 -50.5q72 0 120 50.5t48 122.5t-48 121.5t-120 49.5q-71 0 -119 -49.5t-48 -121.5z" />
    <glyph glyph-name="p" unicode="p" horiz-adv-x="616" 
d="M152 487v-102q27 53 75 82.5t110 29.5q104 0 172.5 -73t68.5 -180q0 -109 -68.5 -181.5t-173.5 -72.5q-61 0 -109 28.5t-75 78.5v-302h-83v692h83zM152 244q0 -72 49 -122t121 -50t120.5 50t48.5 122q0 71 -49 121t-120 50q-72 0 -121 -50t-49 -121z" />
    <glyph glyph-name="q" unicode="q" horiz-adv-x="617" 
d="M463 389v98h84v-692h-84v302q-27 -50 -75 -78.5t-108 -28.5q-105 0 -173.5 72.5t-68.5 181.5q0 107 69 180t173 73q60 0 108 -29t75 -79zM463 244q0 71 -48.5 121t-120.5 50t-121 -50t-49 -121q0 -72 49 -122t121 -50t120.5 50t48.5 122z" />
    <glyph glyph-name="r" unicode="r" horiz-adv-x="335" 
d="M152 487v-66q39 76 126 76q19 0 41 -5v-89q-27 12 -59 12q-51 0 -78.5 -33.5t-29.5 -91.5v-290h-83v487h83z" />
    <glyph glyph-name="s" unicode="s" horiz-adv-x="382" 
d="M322 472v-88q-53 39 -111 39q-38 0 -58.5 -17.5t-20.5 -44.5q0 -19 10 -31.5t33 -26.5l86 -51q82 -49 82 -126q0 -62 -45 -99t-122 -37q-68 0 -126 29v90q52 -46 122 -46q40 0 62.5 17.5t22.5 45.5q0 36 -50 66l-90 54q-72 42 -72 117q0 59 43.5 96.5t121.5 37.5
q62 0 112 -25z" />
    <glyph glyph-name="t" unicode="t" horiz-adv-x="300" 
d="M191 0h-83v415h-91v72h95v119l79 21v-140h96v-72h-96v-415z" />
    <glyph glyph-name="u" unicode="u" horiz-adv-x="548" 
d="M393 0v76q-41 -86 -145 -86q-82 0 -132 54t-50 139v304h83v-285q0 -59 32.5 -95t89.5 -36q55 0 87.5 34t34.5 90v292h84v-487h-84z" />
    <glyph glyph-name="v" unicode="v" horiz-adv-x="504" 
d="M14 487h88l150 -385l151 385h88l-195 -487h-88z" />
    <glyph glyph-name="w" unicode="w" horiz-adv-x="771" 
d="M20 487h87l112 -383l118 322l-24 61h85l154 -383l112 383h87l-150 -487h-88l-135 330l-120 -330h-89z" />
    <glyph glyph-name="x" unicode="x" horiz-adv-x="458" 
d="M229 180l-119 -180h-98l166 244l-166 243h98l119 -180l119 180h98l-165 -243l165 -244h-98z" />
    <glyph glyph-name="y" unicode="y" horiz-adv-x="498" 
d="M94 -205l109 242l-188 450h95l139 -345l143 345h95l-297 -692h-96z" />
    <glyph glyph-name="z" unicode="z" horiz-adv-x="395" 
d="M356 417l-223 -345h223v-72h-321v70l220 345h-210v72h311v-70z" />
    <glyph glyph-name="braceleft" unicode="{" horiz-adv-x="302" 
d="M6 215v55h30q81 0 81 97v177q0 80 31.5 113t94.5 33h37v-54h-27q-38 0 -57 -21t-19 -75v-183q0 -96 -70 -115q70 -19 70 -115v-181q0 -55 19 -76t57 -21h27v-54h-36q-64 0 -95.5 33t-31.5 115v174q0 98 -81 98h-30z" />
    <glyph glyph-name="bar" unicode="|" horiz-adv-x="215" 
d="M137 690v-895h-60v895h60z" />
    <glyph glyph-name="braceright" unicode="}" horiz-adv-x="302" 
d="M296 270v-55h-30q-81 0 -81 -97v-177q0 -80 -31.5 -113t-94.5 -33h-37v54h27q38 0 57 21t19 75v183q0 96 70 115q-70 19 -70 115v181q0 55 -19 76t-57 21h-27v54h36q64 0 95.5 -33t31.5 -115v-174q0 -98 81 -98h30z" />
    <glyph glyph-name="asciitilde" unicode="~" 
d="M482 328v-71q-45 -38 -106 -38q-43 0 -121 32.5t-115 32.5q-56 0 -102 -42v70q47 38 107 38q41 0 118.5 -32.5t116.5 -32.5q61 0 102 43z" />
    <glyph glyph-name="uni00A0" unicode="&#xa0;" horiz-adv-x="234" 
 />
    <glyph glyph-name="exclamdown" unicode="&#xa1;" horiz-adv-x="230" 
d="M84 272h62l16 -465h-94zM179 433q0 -27 -18 -45.5t-46 -18.5q-27 0 -45.5 18.5t-18.5 45.5q0 28 18.5 46t45.5 18q28 0 46 -18t18 -46z" />
    <glyph glyph-name="cent" unicode="&#xa2;" 
d="M345 690v-93q60 -7 99 -30v-92q-43 33 -99 40v-340q60 8 99 41v-90q-42 -27 -99 -33v-93h-60v94q-98 11 -160 82t-62 170t62 169.5t160 81.5v93h60zM148 346q0 -64 38.5 -111t98.5 -58v337q-60 -11 -98.5 -58t-38.5 -110z" />
    <glyph glyph-name="sterling" unicode="&#xa3;" 
d="M42 352h86q-23 88 -23 141q0 87 54 142t149 55t148 -36v-101q-23 21 -62 36.5t-80 15.5q-56 0 -88.5 -32t-32.5 -84q0 -44 27 -137h190v-60h-172q16 -62 16 -103q0 -32 -14.5 -61t-36.5 -46h253v-82h-366v73q29 16 49 46t20 65q0 41 -15 108h-102v60z" />
    <glyph glyph-name="currency" unicode="&#xa4;" horiz-adv-x="493" 
d="M79 284q0 48 23 88l-49 52l49 48l48 -50q42 32 96 32q53 0 96 -30l47 47l47 -46l-47 -48q28 -42 28 -93q0 -53 -29 -94l50 -51l-49 -48l-53 50q-38 -26 -90 -26q-53 0 -93 29l-50 -50l-47 46l50 51q-27 41 -27 93zM150 284q0 -41 27.5 -71t68.5 -30q43 0 71 29.5t28 71.5
t-28 72t-71 30q-41 0 -68.5 -30t-27.5 -72z" />
    <glyph glyph-name="yen" unicode="&#xa5;" 
d="M63 206h154v86h-154v60h126l-179 328h98l152 -293l153 293h99l-181 -328h124v-60h-152v-86h152v-59h-152v-147h-86v147h-154v59z" />
    <glyph glyph-name="brokenbar" unicode="&#xa6;" horiz-adv-x="223" 
d="M141 394h-60v296h60v-296zM81 108h60v-313h-60v313z" />
    <glyph glyph-name="section" unicode="&#xa7;" horiz-adv-x="495" 
d="M417 553q-78 55 -154 55q-52 0 -83 -19t-31 -53q0 -38 63 -70l125 -61q59 -27 83.5 -62t24.5 -81q0 -69 -63 -111q63 -46 63 -123q0 -64 -55.5 -109.5t-153.5 -45.5q-93 0 -173 45v99q83 -62 170 -62q56 0 88.5 21.5t32.5 53.5q0 41 -70 77l-127 63q-100 47 -100 134
q0 73 66 113q-66 46 -66 121q0 63 52 107.5t155 44.5q82 0 153 -42v-95zM196 381q-51 -22 -51 -68q0 -40 68 -75l97 -52q48 26 48 68t-79 82z" />
    <glyph glyph-name="dieresis" unicode="&#xa8;" horiz-adv-x="580" 
d="M144 634q0 22 14.5 37t36.5 15t36.5 -15t14.5 -37t-14.5 -36.5t-36.5 -14.5t-36.5 14.5t-14.5 36.5zM334 634q0 22 14.5 37t35.5 15q23 0 37.5 -15t14.5 -37t-14.5 -36.5t-37.5 -14.5q-21 0 -35.5 14.5t-14.5 36.5z" />
    <glyph glyph-name="copyright" unicode="&#xa9;" horiz-adv-x="812" 
d="M46 343q0 157 104.5 258t256.5 101t256 -101t104 -258q0 -156 -104 -258.5t-256 -102.5t-256.5 102.5t-104.5 258.5zM103 343q0 -136 87 -221t217 -85q129 0 215.5 85t86.5 221t-86.5 220t-215.5 84q-130 0 -217 -84t-87 -220zM524 238v-74q-46 -24 -102 -24
q-89 0 -149.5 57.5t-60.5 142.5t60.5 143t149.5 58q54 0 102 -25v-74q-43 35 -102 35q-61 0 -102.5 -40t-41.5 -97t41.5 -96.5t102.5 -39.5q60 0 102 34z" />
    <glyph glyph-name="ordfeminine" unicode="&#xaa;" horiz-adv-x="341" 
d="M68 538v63q50 24 100 24q58 0 91.5 -31t33.5 -94v-192h-66v31q-21 -38 -82 -38q-49 0 -78.5 30t-29.5 73t31.5 71t79.5 28q54 0 79 -32v30q0 65 -69 65q-44 0 -90 -28zM105 404q0 -23 17 -38.5t42 -15.5t42.5 15.5t17.5 38.5t-17.5 38.5t-42.5 15.5t-42 -15.5t-17 -38.5z
M62 249h222v-60h-222v60z" />
    <glyph glyph-name="guillemotleft" unicode="&#xab;" horiz-adv-x="476" 
d="M39 285l162 214l45 -35l-121 -180l121 -179l-45 -34zM223 285l162 214l45 -35l-121 -180l121 -179l-45 -34z" />
    <glyph glyph-name="logicalnot" unicode="&#xac;" 
d="M34 343v66h445v-258h-69v192h-376z" />
    <glyph glyph-name="uni00AD" unicode="&#xad;" horiz-adv-x="376" 
d="M314 246h-253v78h253v-78z" />
    <glyph glyph-name="registered" unicode="&#xae;" horiz-adv-x="597" 
d="M46 514q0 110 73 181t180 71t180 -71t73 -181t-73 -181.5t-180 -71.5q-106 0 -179.5 71.5t-73.5 181.5zM88 514q0 -95 60 -154t151 -59t151 59t60 154t-60 153.5t-151 58.5t-151 -58.5t-60 -153.5zM211 379v273h91q42 0 67.5 -20.5t25.5 -56.5q0 -29 -16.5 -47t-42.5 -24
q27 -12 46.5 -45.5t25.5 -79.5h-48q-9 48 -30.5 77.5t-48.5 29.5h-23v-107h-47zM346 569q0 18 -12.5 28t-31.5 10h-44v-75h44q19 0 31.5 10t12.5 27z" />
    <glyph glyph-name="macron" unicode="&#xaf;" horiz-adv-x="580" 
d="M150 654h279v-58h-279v58z" />
    <glyph glyph-name="degree" unicode="&#xb0;" horiz-adv-x="388" 
d="M40 532q0 64 43 110t110 46q68 0 112 -46t44 -110q0 -63 -44 -109t-112 -46q-66 0 -109.5 46t-43.5 109zM95 532q0 -42 27.5 -72.5t70.5 -30.5q44 0 72 30.5t28 72.5t-28 72.5t-72 30.5q-43 0 -70.5 -30.5t-27.5 -72.5z" />
    <glyph glyph-name="plusminus" unicode="&#xb1;" 
d="M37 386v66h186v191h71v-191h188v-66h-188v-176h-71v176h-186zM37 47v66h445v-66h-445z" />
    <glyph glyph-name="twosuperior" unicode="&#xb2;" horiz-adv-x="293" 
d="M29 414v56l126 147q40 45 40 78q0 27 -18 43t-48 16q-51 0 -92 -38v71q42 30 97 30q60 0 93 -31.5t33 -79.5q0 -57 -50 -115l-99 -115h146v-62h-228z" />
    <glyph glyph-name="threesuperior" unicode="&#xb3;" horiz-adv-x="293" 
d="M66 589v62h61q25 0 42 14.5t17 36.5q0 23 -17.5 37t-46.5 14q-51 0 -82 -23v71q32 16 83 16q57 0 93 -30.5t36 -76.5q0 -63 -52 -89q63 -26 63 -98q0 -50 -39 -82.5t-98 -32.5q-51 0 -91 18v75q38 -29 88 -29q32 0 53.5 16.5t21.5 42.5t-20 42t-51 16h-61z" />
    <glyph glyph-name="acute" unicode="&#xb4;" horiz-adv-x="580" 
d="M291 696h74l-85 -147h-65z" />
    <glyph glyph-name="mu" unicode="&#xb5;" horiz-adv-x="565" 
d="M402 0v76q-41 -86 -145 -86q-66 0 -99 49v-244h-83v692h83v-285q0 -59 32.5 -95t89.5 -36q55 0 87.5 34t34.5 90v292h84v-487h-84z" />
    <glyph glyph-name="paragraph" unicode="&#xb6;" horiz-adv-x="513" 
d="M198 487h95v-692h-65v391h-30q-86 0 -128.5 39.5t-42.5 109.5q0 71 42.5 111.5t128.5 40.5zM433 -205h-64v692h64v-692z" />
    <glyph glyph-name="periodcentered" unicode="&#xb7;" horiz-adv-x="240" 
d="M56 286q0 28 18 46t46 18q27 0 45.5 -18t18.5 -46q0 -27 -18.5 -45t-45.5 -18q-28 0 -46 18t-18 45z" />
    <glyph glyph-name="cedilla" unicode="&#xb8;" horiz-adv-x="580" 
d="M304 -152h-82l62 160h74z" />
    <glyph glyph-name="onesuperior" unicode="&#xb9;" horiz-adv-x="293" 
d="M26 414v61h103v275h-90v61h154v-336h88v-61h-255z" />
    <glyph glyph-name="ordmasculine" unicode="&#xba;" horiz-adv-x="369" 
d="M21 464q0 68 47 114.5t116 46.5t116 -46.5t47 -114.5q0 -69 -47 -115.5t-116 -46.5t-116 46.5t-47 115.5zM87 464q0 -41 28 -70t69 -29t69 29t28 70t-28 69.5t-69 28.5t-69 -28.5t-28 -69.5zM74 249h222v-60h-222v60z" />
    <glyph glyph-name="guillemotright" unicode="&#xbb;" horiz-adv-x="477" 
d="M439 284l-162 -214l-45 35l121 180l-121 179l45 34zM253 284l-162 -214l-45 35l121 180l-121 179l45 34z" />
    <glyph glyph-name="onequarter" unicode="&#xbc;" horiz-adv-x="795" 
d="M236 0l302 680h66l-303 -680h-65zM43 283v61h103v275h-90v61h154v-336h88v-61h-255zM765 82h-55v-82h-64v82h-189v55l189 260h64v-253h55v-62zM525 144h121v164z" />
    <glyph glyph-name="onehalf" unicode="&#xbd;" horiz-adv-x="792" 
d="M235 0l302 680h66l-303 -680h-65zM42 283v61h103v275h-90v61h154v-336h88v-61h-255zM520 0v56l126 147q40 45 40 78q0 27 -18 43t-48 16q-51 0 -92 -38v71q42 30 97 30q60 0 93 -31.5t33 -79.5q0 -57 -50 -115l-99 -115h146v-62h-228z" />
    <glyph glyph-name="threequarters" unicode="&#xbe;" horiz-adv-x="773" 
d="M214 0l302 680h66l-303 -680h-65zM743 82h-55v-82h-64v82h-189v55l189 260h64v-253h55v-62zM503 144h121v164zM79 458v62h61q25 0 42 14.5t17 36.5q0 23 -17.5 37t-46.5 14q-51 0 -82 -23v71q32 16 83 16q57 0 93 -30.5t36 -76.5q0 -63 -52 -89q63 -26 63 -98
q0 -50 -39 -82.5t-98 -32.5q-51 0 -91 18v75q38 -29 88 -29q32 0 53.5 16.5t21.5 42.5t-20 42t-51 16h-61z" />
    <glyph glyph-name="questiondown" unicode="&#xbf;" horiz-adv-x="415" 
d="M198 272h86q0 -50 -13.5 -78.5t-48.5 -58.5l-56 -51q-45 -40 -45 -101q0 -43 30.5 -71.5t93.5 -28.5q33 0 71 15t64 40v-105q-62 -36 -142 -36q-104 0 -155 53t-51 127q0 85 65 147l56 52q45 43 45 96zM305 433q0 -27 -18 -45.5t-45 -18.5q-28 0 -46 18.5t-18 45.5
q0 28 18 46t46 18q27 0 45 -18t18 -46z" />
    <glyph glyph-name="Agrave" unicode="&#xc0;" horiz-adv-x="631" 
d="M523 0l-71 190h-275l-69 -190h-97l256 680h97l256 -680h-97zM315 567l-109 -294h218zM197 874h74l76 -147h-66z" />
    <glyph glyph-name="Aacute" unicode="&#xc1;" horiz-adv-x="631" 
d="M523 0l-71 190h-275l-69 -190h-97l256 680h97l256 -680h-97zM315 567l-109 -294h218zM365 874h74l-85 -147h-65z" />
    <glyph glyph-name="Acircumflex" unicode="&#xc2;" horiz-adv-x="631" 
d="M523 0l-71 190h-275l-69 -190h-97l256 680h97l256 -680h-97zM315 567l-109 -294h218zM274 874h85l98 -147h-67l-73 106l-74 -106h-67z" />
    <glyph glyph-name="Atilde" unicode="&#xc3;" horiz-adv-x="631" 
d="M523 0l-71 190h-275l-69 -190h-97l256 680h97l256 -680h-97zM315 567l-109 -294h218zM455 817v-64q-34 27 -70 27q-22 0 -66.5 -19t-74.5 -19q-43 0 -67 22v63q25 -25 67 -25q24 0 66 18.5t75 18.5q36 0 70 -22z" />
    <glyph glyph-name="Adieresis" unicode="&#xc4;" horiz-adv-x="631" 
d="M523 0l-71 190h-275l-69 -190h-97l256 680h97l256 -680h-97zM315 567l-109 -294h218zM169 812q0 22 14.5 37t36.5 15t36.5 -15t14.5 -37t-14.5 -36.5t-36.5 -14.5t-36.5 14.5t-14.5 36.5zM359 812q0 22 14.5 37t35.5 15q23 0 37.5 -15t14.5 -37t-14.5 -36.5t-37.5 -14.5
q-21 0 -35.5 14.5t-14.5 36.5z" />
    <glyph glyph-name="Aring" unicode="&#xc5;" horiz-adv-x="631" 
d="M523 0l-71 190h-275l-69 -190h-97l256 680h97l256 -680h-97zM315 567l-109 -294h218zM214 810q0 41 27.5 68.5t72.5 27.5q47 0 75 -27.5t28 -68.5q0 -40 -28 -68t-75 -28q-45 0 -72.5 28t-27.5 68zM260 810q0 -23 15 -38t39 -15q26 0 41 15t15 38t-15 38t-41 15
q-24 0 -39 -15t-15 -38z" />
    <glyph glyph-name="AE" unicode="&#xc6;" horiz-adv-x="883" 
d="M818 0h-366v190h-245l-129 -190h-106l467 680h379v-82h-280v-215h260v-82h-260v-219h280v-82zM254 273h198v292z" />
    <glyph glyph-name="Ccedilla" unicode="&#xc7;" horiz-adv-x="618" 
d="M358 -152h-82l57 147q-128 20 -209.5 116t-81.5 229q0 149 100.5 249.5t249.5 100.5q99 0 179 -47v-101q-74 63 -179 63q-111 0 -185.5 -77t-74.5 -188q0 -112 74.5 -188.5t185.5 -76.5q106 0 179 62v-100q-76 -44 -165 -47z" />
    <glyph glyph-name="Egrave" unicode="&#xc8;" horiz-adv-x="519" 
d="M454 0h-366v680h366v-82h-280v-215h260v-82h-260v-219h280v-82zM166 874h74l76 -147h-66z" />
    <glyph glyph-name="Eacute" unicode="&#xc9;" horiz-adv-x="519" 
d="M454 0h-366v680h366v-82h-280v-215h260v-82h-260v-219h280v-82zM315 874h74l-85 -147h-65z" />
    <glyph glyph-name="Ecircumflex" unicode="&#xca;" horiz-adv-x="519" 
d="M454 0h-366v680h366v-82h-280v-215h260v-82h-260v-219h280v-82zM228 874h85l98 -147h-67l-73 106l-74 -106h-67z" />
    <glyph glyph-name="Edieresis" unicode="&#xcb;" horiz-adv-x="519" 
d="M454 0h-366v680h366v-82h-280v-215h260v-82h-260v-219h280v-82zM126 812q0 22 14.5 37t36.5 15t36.5 -15t14.5 -37t-14.5 -36.5t-36.5 -14.5t-36.5 14.5t-14.5 36.5zM316 812q0 22 14.5 37t35.5 15q23 0 37.5 -15t14.5 -37t-14.5 -36.5t-37.5 -14.5q-21 0 -35.5 14.5
t-14.5 36.5z" />
    <glyph glyph-name="Igrave" unicode="&#xcc;" horiz-adv-x="263" 
d="M88 0v680h86v-680h-86zM16 874h74l76 -147h-66z" />
    <glyph glyph-name="Iacute" unicode="&#xcd;" horiz-adv-x="263" 
d="M88 0v680h86v-680h-86zM178 874h74l-85 -147h-65z" />
    <glyph glyph-name="Icircumflex" unicode="&#xce;" horiz-adv-x="263" 
d="M88 0v680h86v-680h-86zM89 874h85l98 -147h-67l-73 106l-74 -106h-67z" />
    <glyph glyph-name="Idieresis" unicode="&#xcf;" horiz-adv-x="263" 
d="M88 0v680h86v-680h-86zM-15 812q0 22 14.5 37t36.5 15t36.5 -15t14.5 -37t-14.5 -36.5t-36.5 -14.5t-36.5 14.5t-14.5 36.5zM175 812q0 22 14.5 37t35.5 15q23 0 37.5 -15t14.5 -37t-14.5 -36.5t-37.5 -14.5q-21 0 -35.5 14.5t-14.5 36.5z" />
    <glyph glyph-name="Eth" unicode="&#xd0;" horiz-adv-x="711" 
d="M28 370h67v310h239q151 0 242 -94.5t91 -245.5t-91 -245.5t-242 -94.5h-239v312h-67v58zM333 598h-152v-228h126v-58h-126v-230h152q112 0 178.5 72t66.5 186q0 113 -66.5 185.5t-178.5 72.5z" />
    <glyph glyph-name="Ntilde" unicode="&#xd1;" horiz-adv-x="716" 
d="M541 0l-361 488v-488h-86v603l-47 70v7h104l390 -532v532h86v-680h-86zM503 817v-64q-34 27 -70 27q-22 0 -66.5 -19t-74.5 -19q-43 0 -67 22v63q25 -25 67 -25q24 0 66 18.5t75 18.5q36 0 70 -22z" />
    <glyph glyph-name="Ograve" unicode="&#xd2;" horiz-adv-x="785" 
d="M42 340q0 149 100.5 249.5t249.5 100.5t249.5 -100.5t100.5 -249.5t-100.5 -249.5t-249.5 -100.5t-249.5 100.5t-100.5 249.5zM132 340q0 -112 74.5 -188.5t185.5 -76.5t186 76.5t75 188.5t-75 188.5t-186 76.5t-185.5 -77t-74.5 -188zM273 874h74l76 -147h-66z" />
    <glyph glyph-name="Oacute" unicode="&#xd3;" horiz-adv-x="785" 
d="M42 340q0 149 100.5 249.5t249.5 100.5t249.5 -100.5t100.5 -249.5t-100.5 -249.5t-249.5 -100.5t-249.5 100.5t-100.5 249.5zM132 340q0 -112 74.5 -188.5t185.5 -76.5t186 76.5t75 188.5t-75 188.5t-186 76.5t-185.5 -77t-74.5 -188zM435 874h74l-85 -147h-65z" />
    <glyph glyph-name="Ocircumflex" unicode="&#xd4;" horiz-adv-x="785" 
d="M42 340q0 149 100.5 249.5t249.5 100.5t249.5 -100.5t100.5 -249.5t-100.5 -249.5t-249.5 -100.5t-249.5 100.5t-100.5 249.5zM132 340q0 -112 74.5 -188.5t185.5 -76.5t186 76.5t75 188.5t-75 188.5t-186 76.5t-185.5 -77t-74.5 -188zM349 874h85l98 -147h-67l-73 106
l-74 -106h-67z" />
    <glyph glyph-name="Otilde" unicode="&#xd5;" horiz-adv-x="785" 
d="M42 340q0 149 100.5 249.5t249.5 100.5t249.5 -100.5t100.5 -249.5t-100.5 -249.5t-249.5 -100.5t-249.5 100.5t-100.5 249.5zM132 340q0 -112 74.5 -188.5t185.5 -76.5t186 76.5t75 188.5t-75 188.5t-186 76.5t-185.5 -77t-74.5 -188zM531 817v-64q-34 27 -70 27
q-22 0 -66.5 -19t-74.5 -19q-43 0 -67 22v63q25 -25 67 -25q24 0 66 18.5t75 18.5q36 0 70 -22z" />
    <glyph glyph-name="Odieresis" unicode="&#xd6;" horiz-adv-x="785" 
d="M42 340q0 149 100.5 249.5t249.5 100.5t249.5 -100.5t100.5 -249.5t-100.5 -249.5t-249.5 -100.5t-249.5 100.5t-100.5 249.5zM132 340q0 -112 74.5 -188.5t185.5 -76.5t186 76.5t75 188.5t-75 188.5t-186 76.5t-185.5 -77t-74.5 -188zM246 812q0 22 14.5 37t36.5 15
t36.5 -15t14.5 -37t-14.5 -36.5t-36.5 -14.5t-36.5 14.5t-14.5 36.5zM436 812q0 22 14.5 37t35.5 15q23 0 37.5 -15t14.5 -37t-14.5 -36.5t-37.5 -14.5q-21 0 -35.5 14.5t-14.5 36.5z" />
    <glyph glyph-name="multiply" unicode="&#xd7;" 
d="M100 78l-47 47l158 158l-162 162l51 50l161 -161l160 160l47 -47l-159 -161l161 -161l-50 -51l-162 162z" />
    <glyph glyph-name="Oslash" unicode="&#xd8;" horiz-adv-x="785" 
d="M42 340q0 149 100.5 249.5t249.5 100.5q102 0 187 -52l45 63l47 -32l-47 -63q56 -48 87 -117t31 -149q0 -149 -100.5 -249.5t-249.5 -100.5q-100 0 -184 49l-42 -58l-43 32l41 57q-57 48 -89.5 118t-32.5 152zM132 340q0 -121 85 -198l310 425q-62 38 -135 38
q-111 0 -185.5 -77t-74.5 -188zM653 340q0 117 -82 193l-310 -422q58 -36 131 -36q111 0 186 76.5t75 188.5z" />
    <glyph glyph-name="Ugrave" unicode="&#xd9;" horiz-adv-x="655" 
d="M488 680h86v-437q0 -116 -66.5 -184.5t-179.5 -68.5q-114 0 -180.5 68.5t-66.5 184.5v437h86v-443q0 -73 44 -118t117 -45q72 0 116 45t44 118v443zM216 874h74l76 -147h-66z" />
    <glyph glyph-name="Uacute" unicode="&#xda;" horiz-adv-x="655" 
d="M488 680h86v-437q0 -116 -66.5 -184.5t-179.5 -68.5q-114 0 -180.5 68.5t-66.5 184.5v437h86v-443q0 -73 44 -118t117 -45q72 0 116 45t44 118v443zM367 874h74l-85 -147h-65z" />
    <glyph glyph-name="Ucircumflex" unicode="&#xdb;" horiz-adv-x="655" 
d="M488 680h86v-437q0 -116 -66.5 -184.5t-179.5 -68.5q-114 0 -180.5 68.5t-66.5 184.5v437h86v-443q0 -73 44 -118t117 -45q72 0 116 45t44 118v443zM285 874h85l98 -147h-67l-73 106l-74 -106h-67z" />
    <glyph glyph-name="Udieresis" unicode="&#xdc;" horiz-adv-x="655" 
d="M488 680h86v-437q0 -116 -66.5 -184.5t-179.5 -68.5q-114 0 -180.5 68.5t-66.5 184.5v437h86v-443q0 -73 44 -118t117 -45q72 0 116 45t44 118v443zM181 812q0 22 14.5 37t36.5 15t36.5 -15t14.5 -37t-14.5 -36.5t-36.5 -14.5t-36.5 14.5t-14.5 36.5zM371 812
q0 22 14.5 37t35.5 15q23 0 37.5 -15t14.5 -37t-14.5 -36.5t-37.5 -14.5q-21 0 -35.5 14.5t-14.5 36.5z" />
    <glyph glyph-name="Yacute" unicode="&#xdd;" horiz-adv-x="563" 
d="M238 0v301l-225 379h98l170 -293l171 293h99l-227 -380v-300h-86zM325 874h74l-85 -147h-65z" />
    <glyph glyph-name="Thorn" unicode="&#xde;" horiz-adv-x="525" 
d="M88 0v680h86v-126h114q97 0 155.5 -54.5t58.5 -149.5t-58.5 -149t-155.5 -54h-114v-147h-86zM413 350q0 60 -34.5 91.5t-90.5 31.5h-114v-245h114q56 0 90.5 31t34.5 91z" />
    <glyph glyph-name="germandbls" unicode="&#xdf;" horiz-adv-x="534" 
d="M241 396h38q44 0 76.5 30t32.5 82q0 53 -32.5 83t-81.5 30q-60 0 -91 -35.5t-31 -98.5v-487h-83v483q0 99 51 158t153 59q89 0 144 -50.5t55 -134.5q0 -54 -27 -94.5t-71 -59.5q53 -17 87 -61.5t34 -101.5q0 -98 -58.5 -152t-155.5 -54q-27 0 -62 7l1 80q29 -9 61 -9
q58 0 94.5 34t36.5 98q0 57 -38 89.5t-94 32.5h-39v72z" />
    <glyph glyph-name="agrave" unicode="&#xe0;" horiz-adv-x="475" 
d="M83 381v82q68 34 140 34q87 0 137.5 -46.5t50.5 -140.5v-310h-83v53q-43 -63 -128 -63q-78 0 -124 46.5t-46 115.5q0 68 48.5 114t122.5 46q38 0 73 -16.5t54 -40.5v56q0 55 -32.5 82.5t-80.5 27.5q-67 0 -132 -40zM113 152q0 -41 31.5 -69.5t75.5 -28.5t75.5 28.5
t31.5 69.5q0 39 -32 67.5t-75 28.5q-44 0 -75.5 -28t-31.5 -68zM118 696h74l76 -147h-66z" />
    <glyph glyph-name="aacute" unicode="&#xe1;" horiz-adv-x="475" 
d="M83 381v82q68 34 140 34q87 0 137.5 -46.5t50.5 -140.5v-310h-83v53q-43 -63 -128 -63q-78 0 -124 46.5t-46 115.5q0 68 48.5 114t122.5 46q38 0 73 -16.5t54 -40.5v56q0 55 -32.5 82.5t-80.5 27.5q-67 0 -132 -40zM113 152q0 -41 31.5 -69.5t75.5 -28.5t75.5 28.5
t31.5 69.5q0 39 -32 67.5t-75 28.5q-44 0 -75.5 -28t-31.5 -68zM285 696h74l-85 -147h-65z" />
    <glyph glyph-name="acircumflex" unicode="&#xe2;" horiz-adv-x="475" 
d="M83 381v82q68 34 140 34q87 0 137.5 -46.5t50.5 -140.5v-310h-83v53q-43 -63 -128 -63q-78 0 -124 46.5t-46 115.5q0 68 48.5 114t122.5 46q38 0 73 -16.5t54 -40.5v56q0 55 -32.5 82.5t-80.5 27.5q-67 0 -132 -40zM113 152q0 -41 31.5 -69.5t75.5 -28.5t75.5 28.5
t31.5 69.5q0 39 -32 67.5t-75 28.5q-44 0 -75.5 -28t-31.5 -68zM184 696h85l98 -147h-67l-73 106l-74 -106h-67z" />
    <glyph glyph-name="atilde" unicode="&#xe3;" horiz-adv-x="475" 
d="M83 381v82q68 34 140 34q87 0 137.5 -46.5t50.5 -140.5v-310h-83v53q-43 -63 -128 -63q-78 0 -124 46.5t-46 115.5q0 68 48.5 114t122.5 46q38 0 73 -16.5t54 -40.5v56q0 55 -32.5 82.5t-80.5 27.5q-67 0 -132 -40zM113 152q0 -41 31.5 -69.5t75.5 -28.5t75.5 28.5
t31.5 69.5q0 39 -32 67.5t-75 28.5q-44 0 -75.5 -28t-31.5 -68zM367 639v-64q-34 27 -70 27q-22 0 -66.5 -19t-74.5 -19q-43 0 -67 22v63q25 -25 67 -25q24 0 66 18.5t75 18.5q36 0 70 -22z" />
    <glyph glyph-name="adieresis" unicode="&#xe4;" horiz-adv-x="475" 
d="M83 381v82q68 34 140 34q87 0 137.5 -46.5t50.5 -140.5v-310h-83v53q-43 -63 -128 -63q-78 0 -124 46.5t-46 115.5q0 68 48.5 114t122.5 46q38 0 73 -16.5t54 -40.5v56q0 55 -32.5 82.5t-80.5 27.5q-67 0 -132 -40zM113 152q0 -41 31.5 -69.5t75.5 -28.5t75.5 28.5
t31.5 69.5q0 39 -32 67.5t-75 28.5q-44 0 -75.5 -28t-31.5 -68zM82 634q0 22 14.5 37t36.5 15t36.5 -15t14.5 -37t-14.5 -36.5t-36.5 -14.5t-36.5 14.5t-14.5 36.5zM272 634q0 22 14.5 37t35.5 15q23 0 37.5 -15t14.5 -37t-14.5 -36.5t-37.5 -14.5q-21 0 -35.5 14.5
t-14.5 36.5z" />
    <glyph glyph-name="aring" unicode="&#xe5;" horiz-adv-x="475" 
d="M83 381v82q68 34 140 34q87 0 137.5 -46.5t50.5 -140.5v-310h-83v53q-43 -63 -128 -63q-78 0 -124 46.5t-46 115.5q0 68 48.5 114t122.5 46q38 0 73 -16.5t54 -40.5v56q0 55 -32.5 82.5t-80.5 27.5q-67 0 -132 -40zM113 152q0 -41 31.5 -69.5t75.5 -28.5t75.5 28.5
t31.5 69.5q0 39 -32 67.5t-75 28.5q-44 0 -75.5 -28t-31.5 -68zM128 632q0 41 27.5 68.5t72.5 27.5q47 0 75 -27.5t28 -68.5q0 -40 -28 -68t-75 -28q-45 0 -72.5 28t-27.5 68zM174 632q0 -23 15 -38t39 -15q26 0 41 15t15 38t-15 38t-41 15q-24 0 -39 -15t-15 -38z" />
    <glyph glyph-name="ae" unicode="&#xe6;" horiz-adv-x="851" 
d="M816 214h-389q7 -68 53.5 -108t115.5 -40q97 0 175 61v-86q-73 -51 -183 -51q-71 0 -123 28.5t-79 76.5q-21 -46 -67.5 -75.5t-107.5 -29.5q-85 0 -133 46.5t-48 115.5q0 68 48.5 114t122.5 46q38 0 73 -16.5t54 -40.5v56q0 55 -32.5 82.5t-80.5 27.5q-67 0 -132 -40v82
q68 34 140 34q62 0 106.5 -26.5t61.5 -79.5q31 49 82.5 77.5t112.5 28.5q103 0 169 -69t66 -170q0 -26 -5 -44zM113 152q0 -41 31.5 -69.5t75.5 -28.5t75.5 28.5t31.5 69.5q0 39 -32 67.5t-75 28.5q-44 0 -75.5 -28t-31.5 -68zM585 425q-65 0 -109.5 -42.5t-49.5 -104.5h314
q-1 65 -45.5 106t-109.5 41z" />
    <glyph glyph-name="ccedilla" unicode="&#xe7;" horiz-adv-x="461" 
d="M262 -152h-82l57 148q-89 17 -144 85.5t-55 162.5q0 108 72.5 180.5t182.5 72.5q70 0 126 -33v-92q-53 43 -126 43q-72 0 -121 -49.5t-49 -121.5t49 -122.5t121 -50.5q73 0 126 43v-90q-44 -28 -109 -33z" />
    <glyph glyph-name="egrave" unicode="&#xe8;" horiz-adv-x="546" 
d="M512 213h-390q8 -65 54.5 -106t115.5 -41q97 0 175 61v-86q-79 -51 -181 -51q-106 0 -177 72t-71 182q0 107 69.5 180t173.5 73q103 0 169 -69t66 -170q0 -25 -4 -45zM281 425q-65 0 -109.5 -42t-49.5 -104h313q-1 65 -45 105.5t-109 40.5zM176 696h74l76 -147h-66z" />
    <glyph glyph-name="eacute" unicode="&#xe9;" horiz-adv-x="546" 
d="M512 213h-390q8 -65 54.5 -106t115.5 -41q97 0 175 61v-86q-79 -51 -181 -51q-106 0 -177 72t-71 182q0 107 69.5 180t173.5 73q103 0 169 -69t66 -170q0 -25 -4 -45zM281 425q-65 0 -109.5 -42t-49.5 -104h313q-1 65 -45 105.5t-109 40.5zM328 696h74l-85 -147h-65z" />
    <glyph glyph-name="ecircumflex" unicode="&#xea;" horiz-adv-x="546" 
d="M512 213h-390q8 -65 54.5 -106t115.5 -41q97 0 175 61v-86q-79 -51 -181 -51q-106 0 -177 72t-71 182q0 107 69.5 180t173.5 73q103 0 169 -69t66 -170q0 -25 -4 -45zM281 425q-65 0 -109.5 -42t-49.5 -104h313q-1 65 -45 105.5t-109 40.5zM248 696h85l98 -147h-67
l-73 106l-74 -106h-67z" />
    <glyph glyph-name="edieresis" unicode="&#xeb;" horiz-adv-x="546" 
d="M512 213h-390q8 -65 54.5 -106t115.5 -41q97 0 175 61v-86q-79 -51 -181 -51q-106 0 -177 72t-71 182q0 107 69.5 180t173.5 73q103 0 169 -69t66 -170q0 -25 -4 -45zM281 425q-65 0 -109.5 -42t-49.5 -104h313q-1 65 -45 105.5t-109 40.5zM140 634q0 22 14.5 37t36.5 15
t36.5 -15t14.5 -37t-14.5 -36.5t-36.5 -14.5t-36.5 14.5t-14.5 36.5zM330 634q0 22 14.5 37t35.5 15q23 0 37.5 -15t14.5 -37t-14.5 -36.5t-37.5 -14.5q-21 0 -35.5 14.5t-14.5 36.5z" />
    <glyph glyph-name="igrave" unicode="&#xec;" horiz-adv-x="221" 
d="M152 487v-487h-83v487h83zM-5 696h74l76 -147h-66z" />
    <glyph glyph-name="iacute" unicode="&#xed;" horiz-adv-x="221" 
d="M152 487v-487h-83v487h83zM155 696h74l-85 -147h-65z" />
    <glyph glyph-name="icircumflex" unicode="&#xee;" horiz-adv-x="221" 
d="M152 487v-487h-83v487h83zM68 696h85l98 -147h-67l-73 106l-74 -106h-67z" />
    <glyph glyph-name="idieresis" unicode="&#xef;" horiz-adv-x="221" 
d="M152 487v-487h-83v487h83zM-35 634q0 22 14.5 37t36.5 15t36.5 -15t14.5 -37t-14.5 -36.5t-36.5 -14.5t-36.5 14.5t-14.5 36.5zM155 634q0 22 14.5 37t35.5 15q23 0 37.5 -15t14.5 -37t-14.5 -36.5t-37.5 -14.5q-21 0 -35.5 14.5t-14.5 36.5z" />
    <glyph glyph-name="eth" unicode="&#xf0;" horiz-adv-x="550" 
d="M404 627l-77 -41l140 -213q46 -69 46 -146q0 -101 -68.5 -169t-169.5 -68t-168.5 68t-67.5 169q0 102 69 169t167 67q18 0 36 -3l-58 86l-80 -42l-26 40l79 42l-63 94h103l35 -54l77 42zM127 227q0 -64 42.5 -107.5t105.5 -43.5q64 0 107 43.5t43 107.5q0 63 -43.5 107
t-106.5 44t-105.5 -44t-42.5 -107z" />
    <glyph glyph-name="ntilde" unicode="&#xf1;" horiz-adv-x="545" 
d="M152 487v-77q45 87 146 87q83 0 133 -54t50 -139v-304h-83v284q0 58 -33.5 94.5t-89.5 36.5q-55 0 -88 -34t-35 -91v-290h-83v487h83zM412 639v-64q-34 27 -70 27q-22 0 -66.5 -19t-74.5 -19q-43 0 -67 22v63q25 -25 67 -25q24 0 66.5 18.5t74.5 18.5q36 0 70 -22z" />
    <glyph glyph-name="ograve" unicode="&#xf2;" horiz-adv-x="581" 
d="M37 244q0 106 73.5 179.5t179.5 73.5q108 0 180.5 -73t72.5 -180q0 -108 -72.5 -181t-180.5 -73q-107 0 -180 73t-73 181zM123 244q0 -72 48 -122.5t119 -50.5q72 0 120 50.5t48 122.5t-48 121.5t-120 49.5q-71 0 -119 -49.5t-48 -121.5zM184 696h74l76 -147h-66z" />
    <glyph glyph-name="oacute" unicode="&#xf3;" horiz-adv-x="581" 
d="M37 244q0 106 73.5 179.5t179.5 73.5q108 0 180.5 -73t72.5 -180q0 -108 -72.5 -181t-180.5 -73q-107 0 -180 73t-73 181zM123 244q0 -72 48 -122.5t119 -50.5q72 0 120 50.5t48 122.5t-48 121.5t-120 49.5q-71 0 -119 -49.5t-48 -121.5zM339 696h74l-85 -147h-65z" />
    <glyph glyph-name="ocircumflex" unicode="&#xf4;" horiz-adv-x="581" 
d="M37 244q0 106 73.5 179.5t179.5 73.5q108 0 180.5 -73t72.5 -180q0 -108 -72.5 -181t-180.5 -73q-107 0 -180 73t-73 181zM123 244q0 -72 48 -122.5t119 -50.5q72 0 120 50.5t48 122.5t-48 121.5t-120 49.5q-71 0 -119 -49.5t-48 -121.5zM248 696h85l98 -147h-67l-73 106
l-74 -106h-67z" />
    <glyph glyph-name="otilde" unicode="&#xf5;" horiz-adv-x="581" 
d="M37 244q0 106 73.5 179.5t179.5 73.5q108 0 180.5 -73t72.5 -180q0 -108 -72.5 -181t-180.5 -73q-107 0 -180 73t-73 181zM123 244q0 -72 48 -122.5t119 -50.5q72 0 120 50.5t48 122.5t-48 121.5t-120 49.5q-71 0 -119 -49.5t-48 -121.5zM430 639v-64q-34 27 -70 27
q-22 0 -66.5 -19t-74.5 -19q-43 0 -67 22v63q25 -25 67 -25q23 0 66 18.5t75 18.5q36 0 70 -22z" />
    <glyph glyph-name="odieresis" unicode="&#xf6;" horiz-adv-x="581" 
d="M37 244q0 106 73.5 179.5t179.5 73.5q108 0 180.5 -73t72.5 -180q0 -108 -72.5 -181t-180.5 -73q-107 0 -180 73t-73 181zM123 244q0 -72 48 -122.5t119 -50.5q72 0 120 50.5t48 122.5t-48 121.5t-120 49.5q-71 0 -119 -49.5t-48 -121.5zM144 634q0 22 14.5 37t36.5 15
t36.5 -15t14.5 -37t-14.5 -36.5t-36.5 -14.5t-36.5 14.5t-14.5 36.5zM334 634q0 22 14.5 37t35.5 15q23 0 37.5 -15t14.5 -37t-14.5 -36.5t-37.5 -14.5q-21 0 -35.5 14.5t-14.5 36.5z" />
    <glyph glyph-name="divide" unicode="&#xf7;" 
d="M263 39q-26 0 -43 16t-17 41t17 41.5t43 16.5q25 0 42 -16.5t17 -41.5t-16.5 -41t-42.5 -16zM263 415q-26 0 -43 16.5t-17 41.5t17 41t43 16t42.5 -16t16.5 -41t-16.5 -41.5t-42.5 -16.5zM38 252v67h445v-67h-445z" />
    <glyph glyph-name="oslash" unicode="&#xf8;" horiz-adv-x="581" 
d="M37 244q0 106 73.5 179.5t179.5 73.5q70 0 129 -35l31 42l46 -32l-32 -43q79 -74 79 -185q0 -108 -72.5 -181t-180.5 -73q-69 0 -125 32l-29 -41l-43 32l28 39q-84 76 -84 192zM117 244q0 -76 53 -126l203 280q-39 23 -83 23q-72 0 -122.5 -52t-50.5 -125zM463 244
q0 72 -48 118l-202 -276q34 -20 77 -20q74 0 123.5 51.5t49.5 126.5z" />
    <glyph glyph-name="ugrave" unicode="&#xf9;" horiz-adv-x="548" 
d="M393 0v76q-41 -86 -145 -86q-82 0 -132 54t-50 139v304h83v-285q0 -59 32.5 -95t89.5 -36q55 0 87.5 34t34.5 90v292h84v-487h-84zM157 696h74l76 -147h-66z" />
    <glyph glyph-name="uacute" unicode="&#xfa;" horiz-adv-x="548" 
d="M393 0v76q-41 -86 -145 -86q-82 0 -132 54t-50 139v304h83v-285q0 -59 32.5 -95t89.5 -36q55 0 87.5 34t34.5 90v292h84v-487h-84zM317 696h74l-85 -147h-65z" />
    <glyph glyph-name="ucircumflex" unicode="&#xfb;" horiz-adv-x="548" 
d="M393 0v76q-41 -86 -145 -86q-82 0 -132 54t-50 139v304h83v-285q0 -59 32.5 -95t89.5 -36q55 0 87.5 34t34.5 90v292h84v-487h-84zM231 696h85l98 -147h-67l-73 106l-74 -106h-67z" />
    <glyph glyph-name="udieresis" unicode="&#xfc;" horiz-adv-x="548" 
d="M393 0v76q-41 -86 -145 -86q-82 0 -132 54t-50 139v304h83v-285q0 -59 32.5 -95t89.5 -36q55 0 87.5 34t34.5 90v292h84v-487h-84zM128 634q0 22 14.5 37t36.5 15t36.5 -15t14.5 -37t-14.5 -36.5t-36.5 -14.5t-36.5 14.5t-14.5 36.5zM318 634q0 22 14.5 37t35.5 15
q23 0 37.5 -15t14.5 -37t-14.5 -36.5t-37.5 -14.5q-21 0 -35.5 14.5t-14.5 36.5z" />
    <glyph glyph-name="yacute" unicode="&#xfd;" horiz-adv-x="498" 
d="M94 -205l109 242l-188 450h95l139 -345l143 345h95l-297 -692h-96zM299 696h74l-85 -147h-65z" />
    <glyph glyph-name="thorn" unicode="&#xfe;" horiz-adv-x="617" 
d="M153 690v-305q27 53 75 82.5t110 29.5q104 0 172.5 -73t68.5 -180q0 -109 -68.5 -181.5t-173.5 -72.5q-61 0 -109 28.5t-75 78.5v-302h-83v895h83zM153 244q0 -72 49 -122t121 -50t120.5 50t48.5 122q0 71 -48.5 121t-120.5 50t-121 -50t-49 -121z" />
    <glyph glyph-name="ydieresis" unicode="&#xff;" horiz-adv-x="498" 
d="M94 -205l109 242l-188 450h95l139 -345l143 345h95l-297 -692h-96zM105 634q0 22 14.5 37t36.5 15t36.5 -15t14.5 -37t-14.5 -36.5t-36.5 -14.5t-36.5 14.5t-14.5 36.5zM295 634q0 22 14.5 37t35.5 15q23 0 37.5 -15t14.5 -37t-14.5 -36.5t-37.5 -14.5q-21 0 -35.5 14.5
t-14.5 36.5z" />
    <glyph glyph-name="Amacron" unicode="&#x100;" horiz-adv-x="631" 
d="M523 0l-71 190h-275l-69 -190h-97l256 680h97l256 -680h-97zM315 567l-109 -294h218zM175 832h279v-58h-279v58z" />
    <glyph glyph-name="amacron" unicode="&#x101;" horiz-adv-x="475" 
d="M83 381v82q68 34 140 34q87 0 137.5 -46.5t50.5 -140.5v-310h-83v53q-43 -63 -128 -63q-78 0 -124 46.5t-46 115.5q0 68 48.5 114t122.5 46q38 0 73 -16.5t54 -40.5v56q0 55 -32.5 82.5t-80.5 27.5q-67 0 -132 -40zM113 152q0 -41 31.5 -69.5t75.5 -28.5t75.5 28.5
t31.5 69.5q0 39 -32 67.5t-75 28.5q-44 0 -75.5 -28t-31.5 -68zM89 654h279v-58h-279v58z" />
    <glyph glyph-name="Abreve" unicode="&#x102;" horiz-adv-x="631" 
d="M523 0l-71 190h-275l-69 -190h-97l256 680h97l256 -680h-97zM315 567l-109 -294h218zM399 865h52q0 -61 -37 -99t-100 -38q-62 0 -98 38t-36 99h50q2 -37 24 -59.5t60 -22.5q39 0 61 22.5t24 59.5z" />
    <glyph glyph-name="abreve" unicode="&#x103;" horiz-adv-x="475" 
d="M83 381v82q68 34 140 34q87 0 137.5 -46.5t50.5 -140.5v-310h-83v53q-43 -63 -128 -63q-78 0 -124 46.5t-46 115.5q0 68 48.5 114t122.5 46q38 0 73 -16.5t54 -40.5v56q0 55 -32.5 82.5t-80.5 27.5q-67 0 -132 -40zM113 152q0 -41 31.5 -69.5t75.5 -28.5t75.5 28.5
t31.5 69.5q0 39 -32 67.5t-75 28.5q-44 0 -75.5 -28t-31.5 -68zM312 687h52q0 -61 -37 -99t-100 -38q-62 0 -98 38t-36 99h50q2 -37 24 -59.5t60 -22.5q39 0 61 22.5t24 59.5z" />
    <glyph glyph-name="Aogonek" unicode="&#x104;" horiz-adv-x="631" 
d="M523 0l-71 190h-275l-69 -190h-97l256 680h97l256 -680h-1l-77 -54q-34 -24 -34 -52q0 -34 36 -34q31 0 68 30v-65q-42 -21 -78 -21q-45 0 -71.5 20.5t-26.5 57.5q0 52 53 85l52 33h-18zM315 567l-109 -294h218z" />
    <glyph glyph-name="aogonek" unicode="&#x105;" horiz-adv-x="475" 
d="M83 381v82q68 34 140 34q87 0 137.5 -46.5t50.5 -140.5v-310l-77 -54q-34 -24 -34 -52q0 -34 36 -34q31 0 68 30v-65q-42 -21 -78 -21q-45 0 -71.5 20.5t-26.5 57.5q0 52 53 85l52 33h-5v53q-43 -63 -128 -63q-78 0 -124 46.5t-46 115.5q0 68 48.5 114t122.5 46
q38 0 73 -16.5t54 -40.5v56q0 55 -32.5 82.5t-80.5 27.5q-67 0 -132 -40zM113 152q0 -41 31.5 -69.5t75.5 -28.5t75.5 28.5t31.5 69.5q0 39 -32 67.5t-75 28.5q-44 0 -75.5 -28t-31.5 -68z" />
    <glyph glyph-name="Cacute" unicode="&#x106;" horiz-adv-x="618" 
d="M571 137v-100q-80 -47 -179 -47q-149 0 -249.5 100.5t-100.5 249.5t100.5 249.5t249.5 100.5q99 0 179 -47v-101q-74 63 -179 63q-111 0 -185.5 -77t-74.5 -188q0 -112 74.5 -188.5t185.5 -76.5q106 0 179 62zM432 874h74l-85 -147h-65z" />
    <glyph glyph-name="cacute" unicode="&#x107;" horiz-adv-x="461" 
d="M419 114v-90q-55 -34 -126 -34q-110 0 -182.5 72.5t-72.5 181.5q0 108 72.5 180.5t182.5 72.5q70 0 126 -33v-92q-53 43 -126 43q-72 0 -121 -49.5t-49 -121.5t49 -122.5t121 -50.5q73 0 126 43zM324 696h74l-85 -147h-65z" />
    <glyph glyph-name="Ccircumflex" unicode="&#x108;" horiz-adv-x="618" 
d="M571 137v-100q-80 -47 -179 -47q-149 0 -249.5 100.5t-100.5 249.5t100.5 249.5t249.5 100.5q99 0 179 -47v-101q-74 63 -179 63q-111 0 -185.5 -77t-74.5 -188q0 -112 74.5 -188.5t185.5 -76.5q106 0 179 62zM342 874h85l98 -147h-67l-73 106l-74 -106h-67z" />
    <glyph glyph-name="ccircumflex" unicode="&#x109;" horiz-adv-x="461" 
d="M419 114v-90q-55 -34 -126 -34q-110 0 -182.5 72.5t-72.5 181.5q0 108 72.5 180.5t182.5 72.5q70 0 126 -33v-92q-53 43 -126 43q-72 0 -121 -49.5t-49 -121.5t49 -122.5t121 -50.5q73 0 126 43zM238 696h85l98 -147h-67l-73 106l-74 -106h-67z" />
    <glyph glyph-name="Cdotaccent" unicode="&#x10a;" horiz-adv-x="618" 
d="M571 137v-100q-80 -47 -179 -47q-149 0 -249.5 100.5t-100.5 249.5t100.5 249.5t249.5 100.5q99 0 179 -47v-101q-74 63 -179 63q-111 0 -185.5 -77t-74.5 -188q0 -112 74.5 -188.5t185.5 -76.5q106 0 179 62zM334 812q0 23 15.5 39t38.5 16q24 0 40 -15.5t16 -39.5
q0 -23 -15.5 -38.5t-40.5 -15.5q-23 0 -38.5 15.5t-15.5 38.5z" />
    <glyph glyph-name="cdotaccent" unicode="&#x10b;" horiz-adv-x="461" 
d="M419 114v-90q-55 -34 -126 -34q-110 0 -182.5 72.5t-72.5 181.5q0 108 72.5 180.5t182.5 72.5q70 0 126 -33v-92q-53 43 -126 43q-72 0 -121 -49.5t-49 -121.5t49 -122.5t121 -50.5q73 0 126 43zM234 634q0 23 15.5 39t38.5 16q24 0 40 -15.5t16 -39.5q0 -23 -15.5 -38.5
t-40.5 -15.5q-23 0 -38.5 15.5t-15.5 38.5z" />
    <glyph glyph-name="Ccaron" unicode="&#x10c;" horiz-adv-x="618" 
d="M571 137v-100q-80 -47 -179 -47q-149 0 -249.5 100.5t-100.5 249.5t100.5 249.5t249.5 100.5q99 0 179 -47v-101q-74 63 -179 63q-111 0 -185.5 -77t-74.5 -188q0 -112 74.5 -188.5t185.5 -76.5q106 0 179 62zM428 727h-85l-98 147h67l74 -107l74 107h66z" />
    <glyph glyph-name="ccaron" unicode="&#x10d;" horiz-adv-x="461" 
d="M419 114v-90q-55 -34 -126 -34q-110 0 -182.5 72.5t-72.5 181.5q0 108 72.5 180.5t182.5 72.5q70 0 126 -33v-92q-53 43 -126 43q-72 0 -121 -49.5t-49 -121.5t49 -122.5t121 -50.5q73 0 126 43zM323 549h-85l-98 147h67l74 -107l74 107h66z" />
    <glyph glyph-name="Dcaron" unicode="&#x10e;" horiz-adv-x="705" 
d="M88 0v680h240q151 0 241.5 -94.5t90.5 -245.5t-90.5 -245.5t-241.5 -94.5h-240zM327 598h-153v-516h153q112 0 178 72t66 186q0 113 -66 185.5t-178 72.5zM363 727h-85l-98 147h67l74 -107l74 107h66z" />
    <glyph glyph-name="dcaron" unicode="&#x10f;" horiz-adv-x="617" 
d="M463 0v97q-27 -50 -75 -78.5t-108 -28.5q-105 0 -173.5 72.5t-68.5 181.5q0 107 68.5 180t173.5 73q60 0 108 -29t75 -79v301h84v-690h-84zM463 244q0 71 -48.5 121t-120.5 50t-121 -50t-49 -121q0 -72 49 -122t121 -50t120.5 50t48.5 122zM662 533h-66l25 148h83z" />
    <glyph glyph-name="Dcroat" unicode="&#x110;" horiz-adv-x="711" 
d="M28 370h67v310h239q151 0 242 -94.5t91 -245.5t-91 -245.5t-242 -94.5h-239v312h-67v58zM333 598h-152v-228h126v-58h-126v-230h152q112 0 178.5 72t66.5 186q0 113 -66.5 185.5t-178.5 72.5z" />
    <glyph glyph-name="dcroat" unicode="&#x111;" horiz-adv-x="617" 
d="M463 0v97q-27 -50 -75 -78.5t-108 -28.5q-105 0 -173.5 72.5t-68.5 181.5q0 107 68.5 180t173.5 73q60 0 108 -29t75 -79v166h-138v53h138v82h84v-82h61v-53h-61v-555h-84zM463 244q0 71 -48.5 121t-120.5 50t-121 -50t-49 -121q0 -72 49 -122t121 -50t120.5 50t48.5 122
z" />
    <glyph glyph-name="Emacron" unicode="&#x112;" horiz-adv-x="519" 
d="M454 0h-366v680h366v-82h-280v-215h260v-82h-260v-219h280v-82zM136 832h279v-58h-279v58z" />
    <glyph glyph-name="emacron" unicode="&#x113;" horiz-adv-x="546" 
d="M512 213h-390q8 -65 54.5 -106t115.5 -41q97 0 175 61v-86q-79 -51 -181 -51q-106 0 -177 72t-71 182q0 107 69.5 180t173.5 73q103 0 169 -69t66 -170q0 -25 -4 -45zM281 425q-65 0 -109.5 -42t-49.5 -104h313q-1 65 -45 105.5t-109 40.5zM147 654h279v-58h-279v58z" />
    <glyph glyph-name="Ebreve" unicode="&#x114;" horiz-adv-x="519" 
d="M454 0h-366v680h366v-82h-280v-215h260v-82h-260v-219h280v-82zM357 865h52q0 -61 -37 -99t-100 -38q-62 0 -98 38t-36 99h50q2 -37 24 -59.5t60 -22.5q39 0 61 22.5t24 59.5z" />
    <glyph glyph-name="ebreve" unicode="&#x115;" horiz-adv-x="546" 
d="M512 213h-390q8 -65 54.5 -106t115.5 -41q97 0 175 61v-86q-79 -51 -181 -51q-106 0 -177 72t-71 182q0 107 69.5 180t173.5 73q103 0 169 -69t66 -170q0 -25 -4 -45zM281 425q-65 0 -109.5 -42t-49.5 -104h313q-1 65 -45 105.5t-109 40.5zM367 687h52q0 -61 -37 -99
t-100 -38q-62 0 -98 38t-36 99h50q2 -37 24 -59.5t60 -22.5q39 0 61 22.5t24 59.5z" />
    <glyph glyph-name="Edotaccent" unicode="&#x116;" horiz-adv-x="519" 
d="M454 0h-366v680h366v-82h-280v-215h260v-82h-260v-219h280v-82zM220 812q0 23 15.5 39t38.5 16q24 0 40 -15.5t16 -39.5q0 -23 -15.5 -38.5t-40.5 -15.5q-23 0 -38.5 15.5t-15.5 38.5z" />
    <glyph glyph-name="edotaccent" unicode="&#x117;" horiz-adv-x="546" 
d="M512 213h-390q8 -65 54.5 -106t115.5 -41q97 0 175 61v-86q-79 -51 -181 -51q-106 0 -177 72t-71 182q0 107 69.5 180t173.5 73q103 0 169 -69t66 -170q0 -25 -4 -45zM281 425q-65 0 -109.5 -42t-49.5 -104h313q-1 65 -45 105.5t-109 40.5zM233 634q0 23 15.5 39t38.5 16
q25 0 40.5 -15.5t15.5 -39.5q0 -23 -15.5 -38.5t-40.5 -15.5q-23 0 -38.5 15.5t-15.5 38.5z" />
    <glyph glyph-name="Eogonek" unicode="&#x118;" horiz-adv-x="519" 
d="M454 0l-77 -54q-34 -24 -34 -52q0 -34 36 -34q31 0 68 30v-65q-42 -21 -78 -21q-45 0 -71.5 20.5t-26.5 57.5q0 52 53 85l52 33h-288v680h366v-82h-280v-215h260v-82h-260v-219h280v-82z" />
    <glyph glyph-name="eogonek" unicode="&#x119;" horiz-adv-x="546" 
d="M512 213h-390q8 -65 54.5 -106t115.5 -41q97 0 175 61v-86q-43 -28 -94 -40l1 -1l-77 -54q-34 -24 -34 -52q0 -34 36 -34q31 0 68 30v-65q-42 -21 -78 -21q-45 0 -71.5 20.5t-26.5 57.5q0 52 53 85l36 23q-104 2 -173 73.5t-69 180.5q0 107 69.5 180t173.5 73
q103 0 169 -69t66 -170q0 -25 -4 -45zM281 425q-65 0 -109.5 -42t-49.5 -104h313q-1 65 -45 105.5t-109 40.5z" />
    <glyph glyph-name="Ecaron" unicode="&#x11a;" horiz-adv-x="519" 
d="M454 0h-366v680h366v-82h-280v-215h260v-82h-260v-219h280v-82zM313 727h-85l-98 147h67l74 -107l74 107h66z" />
    <glyph glyph-name="ecaron" unicode="&#x11b;" horiz-adv-x="546" 
d="M512 213h-390q8 -65 54.5 -106t115.5 -41q97 0 175 61v-86q-79 -51 -181 -51q-106 0 -177 72t-71 182q0 107 69.5 180t173.5 73q103 0 169 -69t66 -170q0 -25 -4 -45zM281 425q-65 0 -109.5 -42t-49.5 -104h313q-1 65 -45 105.5t-109 40.5zM325 549h-85l-98 147h67
l74 -107l74 107h66z" />
    <glyph glyph-name="Gcircumflex" unicode="&#x11c;" horiz-adv-x="743" 
d="M584 650v-95q-82 50 -185 50q-116 0 -191.5 -75.5t-75.5 -189.5q0 -110 71.5 -187.5t179.5 -77.5q106 0 172 65t66 160q0 19 -2 33h-241v78h328q8 -37 8 -89q0 -142 -90 -237t-243 -95q-146 0 -242.5 100.5t-96.5 249.5q0 150 101 250t256 100q110 0 185 -40zM345 874h85
l98 -147h-67l-73 106l-74 -106h-67z" />
    <glyph glyph-name="gcircumflex" unicode="&#x11d;" horiz-adv-x="612" 
d="M458 487h83v-450q0 -117 -69 -184.5t-184 -67.5q-98 0 -171 42v90q74 -53 172 -53q73 0 121 45.5t48 117.5v79q-27 -47 -74.5 -74.5t-108.5 -27.5q-102 0 -169.5 70.5t-67.5 175.5t67.5 176t169.5 71q61 0 108.5 -28.5t74.5 -77.5v96zM454 250q0 70 -46.5 117t-117.5 47
q-69 0 -116 -47.5t-47 -116.5q0 -70 46.5 -117.5t116.5 -47.5q71 0 117.5 47.5t46.5 117.5zM267 696h85l98 -147h-67l-73 106l-74 -106h-67z" />
    <glyph glyph-name="Gbreve" unicode="&#x11e;" horiz-adv-x="743" 
d="M584 650v-95q-82 50 -185 50q-116 0 -191.5 -75.5t-75.5 -189.5q0 -110 71.5 -187.5t179.5 -77.5q106 0 172 65t66 160q0 19 -2 33h-241v78h328q8 -37 8 -89q0 -142 -90 -237t-243 -95q-146 0 -242.5 100.5t-96.5 249.5q0 150 101 250t256 100q110 0 185 -40zM477 865h52
q0 -61 -37 -99t-100 -38q-62 0 -98 38t-36 99h50q2 -37 24 -59.5t60 -22.5q39 0 61 22.5t24 59.5z" />
    <glyph glyph-name="gbreve" unicode="&#x11f;" horiz-adv-x="612" 
d="M458 487h83v-450q0 -117 -69 -184.5t-184 -67.5q-98 0 -171 42v90q74 -53 172 -53q73 0 121 45.5t48 117.5v79q-27 -47 -74.5 -74.5t-108.5 -27.5q-102 0 -169.5 70.5t-67.5 175.5t67.5 176t169.5 71q61 0 108.5 -28.5t74.5 -77.5v96zM454 250q0 70 -46.5 117t-117.5 47
q-69 0 -116 -47.5t-47 -116.5q0 -70 46.5 -117.5t116.5 -47.5q71 0 117.5 47.5t46.5 117.5zM395 687h52q0 -61 -37 -99t-100 -38q-62 0 -98 38t-36 99h50q2 -37 24 -59.5t60 -22.5q39 0 61 22.5t24 59.5z" />
    <glyph glyph-name="Gdotaccent" unicode="&#x120;" horiz-adv-x="743" 
d="M584 650v-95q-82 50 -185 50q-116 0 -191.5 -75.5t-75.5 -189.5q0 -110 71.5 -187.5t179.5 -77.5q106 0 172 65t66 160q0 19 -2 33h-241v78h328q8 -37 8 -89q0 -142 -90 -237t-243 -95q-146 0 -242.5 100.5t-96.5 249.5q0 150 101 250t256 100q110 0 185 -40zM334 812
q0 23 15.5 39t38.5 16q24 0 40 -15.5t16 -39.5q0 -23 -15.5 -38.5t-40.5 -15.5q-23 0 -38.5 15.5t-15.5 38.5z" />
    <glyph glyph-name="gdotaccent" unicode="&#x121;" horiz-adv-x="612" 
d="M458 487h83v-450q0 -117 -69 -184.5t-184 -67.5q-98 0 -171 42v90q74 -53 172 -53q73 0 121 45.5t48 117.5v79q-27 -47 -74.5 -74.5t-108.5 -27.5q-102 0 -169.5 70.5t-67.5 175.5t67.5 176t169.5 71q61 0 108.5 -28.5t74.5 -77.5v96zM454 250q0 70 -46.5 117t-117.5 47
q-69 0 -116 -47.5t-47 -116.5q0 -70 46.5 -117.5t116.5 -47.5q71 0 117.5 47.5t46.5 117.5zM253 634q0 23 15.5 39t38.5 16q25 0 40.5 -15.5t15.5 -39.5q0 -23 -15.5 -38.5t-40.5 -15.5q-23 0 -38.5 15.5t-15.5 38.5z" />
    <glyph glyph-name="Gcommaaccent" unicode="&#x122;" horiz-adv-x="743" 
d="M584 650v-95q-82 50 -185 50q-116 0 -191.5 -75.5t-75.5 -189.5q0 -110 71.5 -187.5t179.5 -77.5q106 0 172 65t66 160q0 19 -2 33h-241v78h328q8 -37 8 -89q0 -142 -90 -237t-243 -95q-146 0 -242.5 100.5t-96.5 249.5q0 150 101 250t256 100q110 0 185 -40zM387 -215
h-66l25 148h83z" />
    <glyph glyph-name="gcommaaccent" unicode="&#x123;" horiz-adv-x="612" 
d="M458 487h83v-450q0 -117 -69 -184.5t-184 -67.5q-98 0 -171 42v90q74 -53 172 -53q73 0 121 45.5t48 117.5v79q-27 -47 -74.5 -74.5t-108.5 -27.5q-102 0 -169.5 70.5t-67.5 175.5t67.5 176t169.5 71q61 0 108.5 -28.5t74.5 -77.5v96zM454 250q0 70 -46.5 117t-117.5 47
q-69 0 -116 -47.5t-47 -116.5q0 -70 46.5 -117.5t116.5 -47.5q71 0 117.5 47.5t46.5 117.5zM305 697h66l-25 -148h-82z" />
    <glyph glyph-name="Hcircumflex" unicode="&#x124;" horiz-adv-x="737" 
d="M563 0v301h-389v-301h-86v680h86v-297h389v297h86v-680h-86zM326 874h85l98 -147h-67l-73 106l-74 -106h-67z" />
    <glyph glyph-name="hcircumflex" unicode="&#x125;" horiz-adv-x="545" 
d="M152 690v-280q45 87 146 87q83 0 133 -54t50 -139v-304h-83v284q0 58 -33.5 94.5t-89.5 36.5q-55 0 -88 -34t-35 -91v-290h-83v690h83zM230 870h85l98 -147h-67l-73 106l-74 -106h-67z" />
    <glyph glyph-name="Hbar" unicode="&#x126;" horiz-adv-x="737" 
d="M563 0v301h-389v-301h-86v680h86v-112h389v112h86v-680h-86zM174 383h389v127h-389v-127z" />
    <glyph glyph-name="hbar" unicode="&#x127;" horiz-adv-x="545" 
d="M152 690v-82h139v-53h-139v-145q45 87 146 87q83 0 133 -54t50 -139v-304h-83v284q0 58 -33.5 94.5t-89.5 36.5q-55 0 -88 -34t-35 -91v-290h-83v555h-61v53h61v82h83z" />
    <glyph glyph-name="Itilde" unicode="&#x128;" horiz-adv-x="263" 
d="M88 0v680h86v-680h-86zM271 817v-64q-34 27 -70 27q-22 0 -66.5 -19t-74.5 -19q-43 0 -67 22v63q25 -25 67 -25q24 0 66 18.5t75 18.5q36 0 70 -22z" />
    <glyph glyph-name="itilde" unicode="&#x129;" horiz-adv-x="221" 
d="M152 487v-487h-83v487h83zM250 639v-64q-34 27 -70 27q-22 0 -66.5 -19t-74.5 -19q-43 0 -67 22v63q25 -25 67 -25q23 0 66 18.5t75 18.5q36 0 70 -22z" />
    <glyph glyph-name="Imacron" unicode="&#x12a;" horiz-adv-x="263" 
d="M88 0v680h86v-680h-86zM-8 832h279v-58h-279v58z" />
    <glyph glyph-name="imacron" unicode="&#x12b;" horiz-adv-x="221" 
d="M152 487v-487h-83v487h83zM-29 654h279v-58h-279v58z" />
    <glyph glyph-name="Ibreve" unicode="&#x12c;" horiz-adv-x="263" 
d="M88 0v680h86v-680h-86zM215 865h52q0 -61 -37 -99t-100 -38q-62 0 -98 38t-36 99h50q2 -37 24 -59.5t60 -22.5q39 0 61 22.5t24 59.5z" />
    <glyph glyph-name="ibreve" unicode="&#x12d;" horiz-adv-x="221" 
d="M152 487v-487h-83v487h83zM194 687h52q0 -61 -37 -99t-100 -38q-62 0 -98 38t-36 99h50q2 -37 24 -59.5t60 -22.5q39 0 61 22.5t24 59.5z" />
    <glyph glyph-name="Iogonek" unicode="&#x12e;" horiz-adv-x="263" 
d="M88 0v680h86v-680l-77 -54q-34 -24 -34 -52q0 -34 36 -34q31 0 68 30v-65q-42 -21 -78 -21q-45 0 -71.5 20.5t-26.5 57.5q0 52 53 85l55 33h-11z" />
    <glyph glyph-name="iogonek" unicode="&#x12f;" horiz-adv-x="222" 
d="M153 487v-487l-77 -54q-34 -24 -34 -52q0 -34 36 -34q31 0 68 30v-65q-42 -21 -78 -21q-45 0 -71.5 20.5t-26.5 57.5q0 52 53 85l52 33h-5v487h83zM57 640q0 23 15.5 39t38.5 16q25 0 40.5 -15.5t15.5 -39.5q0 -23 -15.5 -38.5t-40.5 -15.5q-23 0 -38.5 15.5t-15.5 38.5z
" />
    <glyph glyph-name="Idotaccent" unicode="&#x130;" horiz-adv-x="263" 
d="M88 0v680h86v-680h-86zM77 812q0 23 15.5 39t38.5 16q25 0 40.5 -15.5t15.5 -39.5q0 -23 -15.5 -38.5t-40.5 -15.5q-23 0 -38.5 15.5t-15.5 38.5z" />
    <glyph glyph-name="dotlessi" unicode="&#x131;" horiz-adv-x="221" 
d="M152 487v-487h-83v487h83z" />
    <glyph glyph-name="IJ" unicode="&#x132;" horiz-adv-x="703" 
d="M88 0v680h86v-680h-86zM535 680h86v-477q0 -104 -49.5 -158.5t-146.5 -54.5q-41 0 -80 13t-60 30v98q60 -57 130 -57q55 0 87.5 33.5t32.5 97.5v475z" />
    <glyph glyph-name="ij" unicode="&#x133;" horiz-adv-x="442" 
d="M152 487v-487h-83v487h83zM56 640q0 23 15.5 39t38.5 16q24 0 40 -15.5t16 -39.5q0 -23 -15.5 -38.5t-40.5 -15.5q-23 0 -38.5 15.5t-15.5 38.5zM290 -72v559h83v-560q0 -71 -34 -106.5t-93 -35.5q-29 0 -49 10v85q22 -13 43 -13q50 0 50 61zM277 640q0 23 16 39t39 16
q24 0 39.5 -16t15.5 -39t-15.5 -38.5t-39.5 -15.5q-23 0 -39 15.5t-16 38.5z" />
    <glyph glyph-name="Jcircumflex" unicode="&#x134;" horiz-adv-x="439" 
d="M272 680h86v-477q0 -104 -49.5 -158.5t-146.5 -54.5q-41 0 -80 13t-60 30v98q60 -57 130 -57q55 0 87.5 33.5t32.5 97.5v475zM270 874h85l98 -147h-67l-73 106l-74 -106h-67z" />
    <glyph glyph-name="jcircumflex" unicode="&#x135;" horiz-adv-x="221" 
d="M69 -72v559h83v-560q0 -71 -34 -106.5t-93 -35.5q-29 0 -49 10v85q22 -13 43 -13q50 0 50 61zM68 696h85l98 -147h-67l-73 106l-74 -106h-67z" />
    <glyph glyph-name="Kcommaaccent" unicode="&#x136;" horiz-adv-x="551" 
d="M88 0v680h86v-333l254 333h103l-210 -278l220 -402h-102l-178 330l-87 -109v-221h-86zM293 -215h-66l25 148h83z" />
    <glyph glyph-name="kcommaaccent" unicode="&#x137;" horiz-adv-x="463" 
d="M69 0v690h83v-435l196 232h100l-162 -195l166 -292h-98l-130 233l-72 -84v-149h-83zM244 -215h-66l25 148h83z" />
    <glyph glyph-name="kgreenlandic" unicode="&#x138;" horiz-adv-x="463" 
d="M69 0v487h83v-232l196 232h100l-162 -195l166 -292h-98l-130 233l-72 -84v-149h-83z" />
    <glyph glyph-name="Lacute" unicode="&#x139;" horiz-adv-x="471" 
d="M454 0h-366v680h86v-598h280v-82zM178 874h74l-85 -147h-65z" />
    <glyph glyph-name="lacute" unicode="&#x13a;" horiz-adv-x="224" 
d="M153 690v-690h-83v690h83zM156 871h74l-85 -147h-65z" />
    <glyph glyph-name="Lcommaaccent" unicode="&#x13b;" horiz-adv-x="471" 
d="M454 0h-366v680h86v-598h280v-82zM267 -215h-66l25 148h83z" />
    <glyph glyph-name="lcommaaccent" unicode="&#x13c;" horiz-adv-x="224" 
d="M153 690v-690h-83v690h83zM110 -215h-66l25 148h83z" />
    <glyph glyph-name="Lcaron" unicode="&#x13d;" horiz-adv-x="475" 
d="M454 0h-366v680h86v-598h280v-82zM411 532h-66l25 148h83z" />
    <glyph glyph-name="lcaron" unicode="&#x13e;" horiz-adv-x="224" 
d="M153 690v-690h-83v690h83zM269 533h-66l25 148h83z" />
    <glyph glyph-name="Ldot" unicode="&#x13f;" horiz-adv-x="476" 
d="M454 0h-366v680h86v-598h280v-82zM326 365q0 27 17.5 44.5t44.5 17.5q26 0 44 -17.5t18 -44.5q0 -26 -18 -43.5t-44 -17.5q-27 0 -44.5 17.5t-17.5 43.5z" />
    <glyph glyph-name="ldot" unicode="&#x140;" horiz-adv-x="351" 
d="M153 690v-690h-83v690h83zM226 365q0 27 17.5 44.5t44.5 17.5q26 0 44 -17.5t18 -44.5q0 -26 -18 -43.5t-44 -17.5q-27 0 -44.5 17.5t-17.5 43.5z" />
    <glyph glyph-name="Lslash" unicode="&#x141;" horiz-adv-x="479" 
d="M461 0h-365v283l-69 -35v66l69 36v330h86v-287l168 89v-67l-168 -89v-244h279v-82z" />
    <glyph glyph-name="lslash" unicode="&#x142;" horiz-adv-x="268" 
d="M171 690v-297l91 48v-66l-91 -49v-326h-83v284l-70 -36v66l70 36v340h83z" />
    <glyph glyph-name="Nacute" unicode="&#x143;" horiz-adv-x="714" 
d="M539 0l-361 488v-488h-86v603l-47 70v7h104l390 -532v532h86v-680h-86zM403 874h74l-85 -147h-65z" />
    <glyph glyph-name="nacute" unicode="&#x144;" horiz-adv-x="545" 
d="M152 487v-77q45 87 146 87q83 0 133 -54t50 -139v-304h-83v284q0 58 -33.5 94.5t-89.5 36.5q-55 0 -88 -34t-35 -91v-290h-83v487h83zM323 696h74l-85 -147h-65z" />
    <glyph glyph-name="Ncommaaccent" unicode="&#x145;" horiz-adv-x="714" 
d="M539 0l-361 488v-488h-86v603l-47 70v7h104l390 -532v532h86v-680h-86zM357 -215h-66l25 148h83z" />
    <glyph glyph-name="ncommaaccent" unicode="&#x146;" horiz-adv-x="545" 
d="M152 487v-77q45 87 146 87q83 0 133 -54t50 -139v-304h-83v284q0 58 -33.5 94.5t-89.5 36.5q-55 0 -88 -34t-35 -91v-290h-83v487h83zM272 -215h-66l25 148h83z" />
    <glyph glyph-name="Ncaron" unicode="&#x147;" horiz-adv-x="714" 
d="M539 0l-361 488v-488h-86v603l-47 70v7h104l390 -532v532h86v-680h-86zM402 727h-85l-98 147h67l74 -107l74 107h66z" />
    <glyph glyph-name="ncaron" unicode="&#x148;" horiz-adv-x="545" 
d="M152 487v-77q45 87 146 87q83 0 133 -54t50 -139v-304h-83v284q0 58 -33.5 94.5t-89.5 36.5q-55 0 -88 -34t-35 -91v-290h-83v487h83zM315 549h-85l-98 147h67l74 -107l74 107h66z" />
    <glyph glyph-name="napostrophe" unicode="&#x149;" horiz-adv-x="545" 
d="M152 487v-77q45 87 146 87q83 0 133 -54t50 -139v-304h-83v284q0 58 -33.5 94.5t-89.5 36.5q-55 0 -88 -34t-35 -91v-290h-83v487h83zM68 532h-66l25 148h83z" />
    <glyph glyph-name="Eng" unicode="&#x14a;" horiz-adv-x="714" 
d="M541 -72v74l-363 486v-488h-86v603l-47 70v7h104l390 -532v532h86v-753q0 -71 -34.5 -106.5t-93.5 -35.5q-30 0 -50 10v85q24 -13 44 -13q50 0 50 61z" />
    <glyph glyph-name="eng" unicode="&#x14b;" horiz-adv-x="545" 
d="M398 -72v356q0 58 -33.5 94.5t-89.5 36.5q-55 0 -88 -34t-35 -91v-290h-83v487h83v-77q45 87 146 87q83 0 133 -54t50 -139v-377q0 -71 -34 -106.5t-93 -35.5q-30 0 -50 10v85q24 -13 44 -13q50 0 50 61z" />
    <glyph glyph-name="Omacron" unicode="&#x14c;" horiz-adv-x="785" 
d="M42 340q0 149 100.5 249.5t249.5 100.5t249.5 -100.5t100.5 -249.5t-100.5 -249.5t-249.5 -100.5t-249.5 100.5t-100.5 249.5zM132 340q0 -112 74.5 -188.5t185.5 -76.5t186 76.5t75 188.5t-75 188.5t-186 76.5t-185.5 -77t-74.5 -188zM252 832h279v-58h-279v58z" />
    <glyph glyph-name="omacron" unicode="&#x14d;" horiz-adv-x="581" 
d="M37 244q0 106 73.5 179.5t179.5 73.5q108 0 180.5 -73t72.5 -180q0 -108 -72.5 -181t-180.5 -73q-107 0 -180 73t-73 181zM123 244q0 -72 48 -122.5t119 -50.5q72 0 120 50.5t48 122.5t-48 121.5t-120 49.5q-71 0 -119 -49.5t-48 -121.5zM151 654h279v-58h-279v58z" />
    <glyph glyph-name="Obreve" unicode="&#x14e;" horiz-adv-x="785" 
d="M42 340q0 149 100.5 249.5t249.5 100.5t249.5 -100.5t100.5 -249.5t-100.5 -249.5t-249.5 -100.5t-249.5 100.5t-100.5 249.5zM132 340q0 -112 74.5 -188.5t185.5 -76.5t186 76.5t75 188.5t-75 188.5t-186 76.5t-185.5 -77t-74.5 -188zM475 865h52q0 -61 -37 -99
t-100 -38q-62 0 -98 38t-36 99h50q2 -37 24 -59.5t60 -22.5q39 0 61 22.5t24 59.5z" />
    <glyph glyph-name="obreve" unicode="&#x14f;" horiz-adv-x="581" 
d="M37 244q0 106 73.5 179.5t179.5 73.5q108 0 180.5 -73t72.5 -180q0 -108 -72.5 -181t-180.5 -73q-107 0 -180 73t-73 181zM123 244q0 -72 48 -122.5t119 -50.5q72 0 120 50.5t48 122.5t-48 121.5t-120 49.5q-71 0 -119 -49.5t-48 -121.5zM374 687h52q0 -61 -37 -99
t-100 -38q-62 0 -98 38t-36 99h50q2 -37 24 -59.5t60 -22.5q39 0 61 22.5t24 59.5z" />
    <glyph glyph-name="Ohungarumlaut" unicode="&#x150;" horiz-adv-x="785" 
d="M42 340q0 149 100.5 249.5t249.5 100.5t249.5 -100.5t100.5 -249.5t-100.5 -249.5t-249.5 -100.5t-249.5 100.5t-100.5 249.5zM132 340q0 -112 74.5 -188.5t185.5 -76.5t186 76.5t75 188.5t-75 188.5t-186 76.5t-185.5 -77t-74.5 -188zM370 874h74l-85 -147h-65zM524 874
h74l-85 -147h-65z" />
    <glyph glyph-name="ohungarumlaut" unicode="&#x151;" horiz-adv-x="581" 
d="M37 244q0 106 73.5 179.5t179.5 73.5q108 0 180.5 -73t72.5 -180q0 -108 -72.5 -181t-180.5 -73q-107 0 -180 73t-73 181zM123 244q0 -72 48 -122.5t119 -50.5q72 0 120 50.5t48 122.5t-48 121.5t-120 49.5q-71 0 -119 -49.5t-48 -121.5zM268 696h74l-85 -147h-65z
M422 696h74l-85 -147h-65z" />
    <glyph glyph-name="OE" unicode="&#x152;" horiz-adv-x="1088" 
d="M1022 0h-365v133q-40 -66 -109.5 -104.5t-155.5 -38.5q-149 0 -249.5 100.5t-100.5 249.5t100.5 249.5t249.5 100.5q85 0 154.5 -38.5t110.5 -104.5v133h365v-82h-279v-215h259v-82h-259v-219h279v-82zM132 340q0 -112 74.5 -188.5t185.5 -76.5t186 76.5t75 188.5
t-75 188.5t-186 76.5t-185.5 -77t-74.5 -188z" />
    <glyph glyph-name="oe" unicode="&#x153;" horiz-adv-x="971" 
d="M936 213h-390q8 -65 55 -106t115 -41q97 0 175 61v-86q-77 -51 -181 -51q-69 0 -124 33.5t-85 90.5q-30 -57 -87 -90.5t-124 -33.5q-109 0 -181 74t-72 180t73.5 179.5t179.5 73.5q69 0 125 -34t87 -91q28 57 82 91t122 34q103 0 169 -69t66 -170q0 -20 -5 -45zM123 244
q0 -72 48 -122.5t119 -50.5q72 0 120 50.5t48 122.5t-48 121.5t-120 49.5q-71 0 -119 -49.5t-48 -121.5zM705 425q-65 0 -109.5 -42t-49.5 -104h313q-1 65 -45 105.5t-109 40.5z" />
    <glyph glyph-name="Racute" unicode="&#x154;" horiz-adv-x="574" 
d="M88 0v680h201q97 0 155.5 -51t58.5 -140q0 -70 -38.5 -114.5t-101.5 -59.5q62 -29 110 -113t66 -202h-89q-23 126 -80.5 205t-124.5 79h-71v-284h-86zM414 481q0 54 -35 85.5t-90 31.5h-115v-232h115q55 0 90 30.5t35 84.5zM304 874h74l-85 -147h-65z" />
    <glyph glyph-name="racute" unicode="&#x155;" horiz-adv-x="335" 
d="M152 487v-66q39 76 126 76q19 0 41 -5v-89q-27 12 -59 12q-51 0 -78.5 -33.5t-29.5 -91.5v-290h-83v487h83zM213 696h74l-85 -147h-65z" />
    <glyph glyph-name="Rcommaaccent" unicode="&#x156;" horiz-adv-x="574" 
d="M88 0v680h201q97 0 155.5 -51t58.5 -140q0 -70 -38.5 -114.5t-101.5 -59.5q62 -29 110 -113t66 -202h-89q-23 126 -80.5 205t-124.5 79h-71v-284h-86zM414 481q0 54 -35 85.5t-90 31.5h-115v-232h115q55 0 90 30.5t35 84.5zM299 -215h-66l25 148h83z" />
    <glyph glyph-name="rcommaaccent" unicode="&#x157;" horiz-adv-x="335" 
d="M152 487v-66q39 76 126 76q19 0 41 -5v-89q-27 12 -59 12q-51 0 -78.5 -33.5t-29.5 -91.5v-290h-83v487h83zM109 -215h-66l25 148h83z" />
    <glyph glyph-name="Rcaron" unicode="&#x158;" horiz-adv-x="574" 
d="M88 0v680h201q97 0 155.5 -51t58.5 -140q0 -70 -38.5 -114.5t-101.5 -59.5q62 -29 110 -113t66 -202h-89q-23 126 -80.5 205t-124.5 79h-71v-284h-86zM414 481q0 54 -35 85.5t-90 31.5h-115v-232h115q55 0 90 30.5t35 84.5zM320 727h-85l-98 147h67l74 -107l74 107h66z
" />
    <glyph glyph-name="rcaron" unicode="&#x159;" horiz-adv-x="335" 
d="M152 487v-66q39 76 126 76q19 0 41 -5v-89q-27 12 -59 12q-51 0 -78.5 -33.5t-29.5 -91.5v-290h-83v487h83zM232 549h-85l-98 147h67l74 -107l74 107h66z" />
    <glyph glyph-name="Sacute" unicode="&#x15a;" horiz-adv-x="480" 
d="M409 653v-97q-68 53 -148 53q-55 0 -87 -26t-32 -69q0 -50 63 -90l118 -74q62 -39 88.5 -80t26.5 -95q0 -78 -56 -131.5t-159 -53.5q-87 0 -167 41v101q73 -61 165 -61q59 0 92.5 29t33.5 71q0 54 -74 100l-117 74q-57 35 -81.5 75t-24.5 92q0 73 53 125.5t160 52.5
q83 0 146 -37zM302 874h74l-85 -147h-65z" />
    <glyph glyph-name="sacute" unicode="&#x15b;" horiz-adv-x="382" 
d="M322 472v-88q-53 39 -111 39q-38 0 -58.5 -17.5t-20.5 -44.5q0 -19 10 -31.5t33 -26.5l86 -51q82 -49 82 -126q0 -62 -45 -99t-122 -37q-68 0 -126 29v90q52 -46 122 -46q40 0 62.5 17.5t22.5 45.5q0 36 -50 66l-90 54q-72 42 -72 117q0 59 43.5 96.5t121.5 37.5
q62 0 112 -25zM241 696h74l-85 -147h-65z" />
    <glyph glyph-name="Scircumflex" unicode="&#x15c;" horiz-adv-x="481" 
d="M410 653v-97q-68 53 -148 53q-55 0 -87 -26t-32 -69q0 -50 63 -90l118 -74q62 -39 88.5 -80t26.5 -95q0 -78 -56 -131.5t-159 -53.5q-87 0 -167 41v101q73 -61 165 -61q59 0 92.5 29t33.5 71q0 54 -74 100l-117 74q-57 35 -81.5 75t-24.5 92q0 73 53 125.5t160 52.5
q83 0 146 -37zM214 874h85l98 -147h-67l-73 106l-74 -106h-67z" />
    <glyph glyph-name="scircumflex" unicode="&#x15d;" horiz-adv-x="382" 
d="M322 472v-88q-53 39 -111 39q-38 0 -58.5 -17.5t-20.5 -44.5q0 -19 10 -31.5t33 -26.5l86 -51q82 -49 82 -126q0 -62 -45 -99t-122 -37q-68 0 -126 29v90q52 -46 122 -46q40 0 62.5 17.5t22.5 45.5q0 36 -50 66l-90 54q-72 42 -72 117q0 59 43.5 96.5t121.5 37.5
q62 0 112 -25zM157 696h85l98 -147h-67l-73 106l-74 -106h-67z" />
    <glyph glyph-name="Scedilla" unicode="&#x15e;" horiz-adv-x="480" 
d="M219 -152h-82l55 144q-73 7 -136 39v101q73 -61 165 -61q59 0 92.5 29t33.5 71q0 54 -74 100l-117 74q-57 35 -81.5 75t-24.5 92q0 73 53 125.5t160 52.5q83 0 146 -37v-97q-68 53 -148 53q-55 0 -87 -26t-32 -69q0 -50 63 -90l118 -74q62 -39 88.5 -80t26.5 -95
q0 -69 -44 -119.5t-126 -62.5z" />
    <glyph glyph-name="scedilla" unicode="&#x15f;" horiz-adv-x="382" 
d="M174 -152h-82l55 144q-54 6 -97 27v90q52 -46 122 -46q40 0 62.5 17.5t22.5 45.5q0 36 -50 66l-90 54q-72 42 -72 117q0 59 43.5 96.5t121.5 37.5q62 0 112 -25v-88q-53 39 -111 39q-38 0 -58.5 -17.5t-20.5 -44.5q0 -19 10 -31.5t33 -26.5l86 -51q82 -49 82 -126
q0 -52 -31.5 -86.5t-88.5 -45.5z" />
    <glyph glyph-name="Scaron" unicode="&#x160;" horiz-adv-x="481" 
d="M410 653v-97q-68 53 -148 53q-55 0 -87 -26t-32 -69q0 -50 63 -90l118 -74q62 -39 88.5 -80t26.5 -95q0 -78 -56 -131.5t-159 -53.5q-87 0 -167 41v101q73 -61 165 -61q59 0 92.5 29t33.5 71q0 54 -74 100l-117 74q-57 35 -81.5 75t-24.5 92q0 73 53 125.5t160 52.5
q83 0 146 -37zM298 727h-85l-98 147h67l74 -107l74 107h66z" />
    <glyph glyph-name="scaron" unicode="&#x161;" horiz-adv-x="382" 
d="M322 472v-88q-53 39 -111 39q-38 0 -58.5 -17.5t-20.5 -44.5q0 -19 10 -31.5t33 -26.5l86 -51q82 -49 82 -126q0 -62 -45 -99t-122 -37q-68 0 -126 29v90q52 -46 122 -46q40 0 62.5 17.5t22.5 45.5q0 36 -50 66l-90 54q-72 42 -72 117q0 59 43.5 96.5t121.5 37.5
q62 0 112 -25zM243 549h-85l-98 147h67l74 -107l74 107h66z" />
    <glyph glyph-name="Tcommaaccent" unicode="&#x162;" horiz-adv-x="484" 
d="M200 0v598h-182v82h448v-82h-180v-598h-7l-51 -151h-82l58 151h-4z" />
    <glyph glyph-name="tcommaaccent" unicode="&#x163;" horiz-adv-x="300" 
d="M134 -151h-82l58 151h-2v415h-91v72h95v119l79 21v-140h96v-72h-96v-415h-6z" />
    <glyph glyph-name="Tcaron" unicode="&#x164;" horiz-adv-x="484" 
d="M200 0v598h-182v82h448v-82h-180v-598h-86zM285 727h-85l-98 147h67l74 -107l74 107h66z" />
    <glyph glyph-name="tcaron" unicode="&#x165;" horiz-adv-x="300" 
d="M191 0h-83v415h-91v72h95v119l79 21v-140h96v-72h-96v-415zM314 533h-66l25 148h83z" />
    <glyph glyph-name="Tbar" unicode="&#x166;" horiz-adv-x="493" 
d="M107 375h97v223h-182v82h448v-82h-180v-223h96v-59h-96v-316h-86v316h-97v59z" />
    <glyph glyph-name="tbar" unicode="&#x167;" horiz-adv-x="314" 
d="M24 271h91v144h-91v72h95v119l79 21v-140h95v-72h-95v-144h94v-58h-94v-213h-83v213h-91v58z" />
    <glyph glyph-name="Utilde" unicode="&#x168;" horiz-adv-x="655" 
d="M488 680h86v-437q0 -116 -66.5 -184.5t-179.5 -68.5q-114 0 -180.5 68.5t-66.5 184.5v437h86v-443q0 -73 44 -118t117 -45q72 0 116 45t44 118v443zM467 817v-64q-34 27 -70 27q-22 0 -66.5 -19t-74.5 -19q-43 0 -67 22v63q25 -25 67 -25q24 0 66 18.5t75 18.5
q36 0 70 -22z" />
    <glyph glyph-name="utilde" unicode="&#x169;" horiz-adv-x="548" 
d="M393 0v76q-41 -86 -145 -86q-82 0 -132 54t-50 139v304h83v-285q0 -59 32.5 -95t89.5 -36q55 0 87.5 34t34.5 90v292h84v-487h-84zM413 639v-64q-34 27 -70 27q-22 0 -66.5 -19t-74.5 -19q-43 0 -67 22v63q25 -25 67 -25q24 0 66 18.5t75 18.5q36 0 70 -22z" />
    <glyph glyph-name="Umacron" unicode="&#x16a;" horiz-adv-x="655" 
d="M488 680h86v-437q0 -116 -66.5 -184.5t-179.5 -68.5q-114 0 -180.5 68.5t-66.5 184.5v437h86v-443q0 -73 44 -118t117 -45q72 0 116 45t44 118v443zM187 832h279v-58h-279v58z" />
    <glyph glyph-name="umacron" unicode="&#x16b;" horiz-adv-x="548" 
d="M393 0v76q-41 -86 -145 -86q-82 0 -132 54t-50 139v304h83v-285q0 -59 32.5 -95t89.5 -36q55 0 87.5 34t34.5 90v292h84v-487h-84zM134 654h279v-58h-279v58z" />
    <glyph glyph-name="Ubreve" unicode="&#x16c;" horiz-adv-x="655" 
d="M488 680h86v-437q0 -116 -66.5 -184.5t-179.5 -68.5q-114 0 -180.5 68.5t-66.5 184.5v437h86v-443q0 -73 44 -118t117 -45q72 0 116 45t44 118v443zM411 865h52q0 -61 -37 -99t-100 -38q-62 0 -98 38t-36 99h50q2 -37 24 -59.5t60 -22.5q39 0 61 22.5t24 59.5z" />
    <glyph glyph-name="ubreve" unicode="&#x16d;" horiz-adv-x="548" 
d="M393 0v76q-41 -86 -145 -86q-82 0 -132 54t-50 139v304h83v-285q0 -59 32.5 -95t89.5 -36q55 0 87.5 34t34.5 90v292h84v-487h-84zM357 687h52q0 -61 -37 -99t-100 -38q-62 0 -98 38t-36 99h50q2 -37 24 -59.5t60 -22.5q39 0 61 22.5t24 59.5z" />
    <glyph glyph-name="Uring" unicode="&#x16e;" horiz-adv-x="655" 
d="M488 680h86v-437q0 -116 -66.5 -184.5t-179.5 -68.5q-114 0 -180.5 68.5t-66.5 184.5v437h86v-443q0 -73 44 -118t117 -45q72 0 116 45t44 118v443zM226 810q0 41 27.5 68.5t72.5 27.5q47 0 75 -27.5t28 -68.5q0 -40 -28 -68t-75 -28q-45 0 -72.5 28t-27.5 68zM272 810
q0 -23 15 -38t39 -15q26 0 41 15t15 38t-15 38t-41 15q-24 0 -39 -15t-15 -38z" />
    <glyph glyph-name="uring" unicode="&#x16f;" horiz-adv-x="548" 
d="M393 0v76q-41 -86 -145 -86q-82 0 -132 54t-50 139v304h83v-285q0 -59 32.5 -95t89.5 -36q55 0 87.5 34t34.5 90v292h84v-487h-84zM172 632q0 41 27.5 68.5t72.5 27.5q47 0 75 -27.5t28 -68.5q0 -40 -28 -68t-75 -28q-45 0 -72.5 28t-27.5 68zM218 632q0 -23 15 -38
t39 -15q26 0 41 15t15 38t-15 38t-41 15q-24 0 -39 -15t-15 -38z" />
    <glyph glyph-name="Uhungarumlaut" unicode="&#x170;" horiz-adv-x="655" 
d="M488 680h86v-437q0 -116 -66.5 -184.5t-179.5 -68.5q-114 0 -180.5 68.5t-66.5 184.5v437h86v-443q0 -73 44 -118t117 -45q72 0 116 45t44 118v443zM291 874h74l-85 -147h-65zM445 874h74l-85 -147h-65z" />
    <glyph glyph-name="uhungarumlaut" unicode="&#x171;" horiz-adv-x="548" 
d="M393 0v76q-41 -86 -145 -86q-82 0 -132 54t-50 139v304h83v-285q0 -59 32.5 -95t89.5 -36q55 0 87.5 34t34.5 90v292h84v-487h-84zM236 696h74l-85 -147h-65zM390 696h74l-85 -147h-65z" />
    <glyph glyph-name="Uogonek" unicode="&#x172;" horiz-adv-x="655" 
d="M488 680h86v-437q0 -99 -48.5 -164t-134.5 -82l-62 -50q-35 -27 -35 -53q0 -34 37 -34q32 0 67 30v-65q-42 -21 -78 -21q-45 0 -71 20.5t-26 57.5q0 48 52 86l32 23q-105 6 -165.5 73.5t-60.5 178.5v437h86v-443q0 -73 44 -118t117 -45q72 0 116 45t44 118v443z" />
    <glyph glyph-name="uogonek" unicode="&#x173;" horiz-adv-x="548" 
d="M393 0v76q-41 -86 -145 -86q-82 0 -132 54t-50 139v304h83v-285q0 -59 32.5 -95t89.5 -36q55 0 87.5 34t34.5 90v292h84v-487h-1l-77 -54q-34 -24 -34 -52q0 -34 36 -34q31 0 68 30v-65q-42 -21 -78 -21q-45 0 -71.5 20.5t-26.5 57.5q0 52 53 85l52 33h-5z" />
    <glyph glyph-name="Wcircumflex" unicode="&#x174;" horiz-adv-x="969" 
d="M216 0l-197 680h96l155 -569l183 497l-23 72h89l181 -569l154 569h96l-196 -680h-97l-162 492l-183 -492h-96zM438 874h85l98 -147h-67l-73 106l-74 -106h-67z" />
    <glyph glyph-name="wcircumflex" unicode="&#x175;" horiz-adv-x="771" 
d="M20 487h87l112 -383l118 322l-24 61h85l154 -383l112 383h87l-150 -487h-88l-135 330l-120 -330h-89zM331 696h85l98 -147h-67l-73 106l-74 -106h-67z" />
    <glyph glyph-name="Ycircumflex" unicode="&#x176;" horiz-adv-x="563" 
d="M238 0v301l-225 379h98l170 -293l171 293h99l-227 -380v-300h-86zM239 874h85l98 -147h-67l-73 106l-74 -106h-67z" />
    <glyph glyph-name="ycircumflex" unicode="&#x177;" horiz-adv-x="498" 
d="M94 -205l109 242l-188 450h95l139 -345l143 345h95l-297 -692h-96zM209 696h85l98 -147h-67l-73 106l-74 -106h-67z" />
    <glyph glyph-name="Ydieresis" unicode="&#x178;" horiz-adv-x="563" 
d="M238 0v301l-225 379h98l170 -293l171 293h99l-227 -380v-300h-86zM136 812q0 22 14.5 37t36.5 15t36.5 -15t14.5 -37t-14.5 -36.5t-36.5 -14.5t-36.5 14.5t-14.5 36.5zM326 812q0 22 14.5 37t35.5 15q23 0 37.5 -15t14.5 -37t-14.5 -36.5t-37.5 -14.5q-21 0 -35.5 14.5
t-14.5 36.5z" />
    <glyph glyph-name="Zacute" unicode="&#x179;" horiz-adv-x="482" 
d="M442 606l-304 -524h304v-82h-407v74l300 524h-290v82h397v-74zM284 874h74l-85 -147h-65z" />
    <glyph glyph-name="zacute" unicode="&#x17a;" horiz-adv-x="395" 
d="M356 417l-223 -345h223v-72h-321v70l220 345h-210v72h311v-70zM242 696h74l-85 -147h-65z" />
    <glyph glyph-name="Zdotaccent" unicode="&#x17b;" horiz-adv-x="482" 
d="M442 606l-304 -524h304v-82h-407v74l300 524h-290v82h397v-74zM197 812q0 23 15.5 39t38.5 16q25 0 40.5 -15.5t15.5 -39.5q0 -23 -15.5 -38.5t-40.5 -15.5q-23 0 -38.5 15.5t-15.5 38.5z" />
    <glyph glyph-name="zdotaccent" unicode="&#x17c;" horiz-adv-x="395" 
d="M356 417l-223 -345h223v-72h-321v70l220 345h-210v72h311v-70zM154 634q0 23 15.5 39t38.5 16q24 0 40 -15.5t16 -39.5q0 -23 -15.5 -38.5t-40.5 -15.5q-23 0 -38.5 15.5t-15.5 38.5z" />
    <glyph glyph-name="Zcaron" unicode="&#x17d;" horiz-adv-x="482" 
d="M442 606l-304 -524h304v-82h-407v74l300 524h-290v82h397v-74zM291 727h-85l-98 147h67l74 -107l74 107h66z" />
    <glyph glyph-name="zcaron" unicode="&#x17e;" horiz-adv-x="395" 
d="M356 417l-223 -345h223v-72h-321v70l220 345h-210v72h311v-70zM248 549h-85l-98 147h67l74 -107l74 107h66z" />
    <glyph glyph-name="florin" unicode="&#x192;" 
d="M227 146v185h-129v60h129v157q0 72 41.5 112t112.5 40q33 0 57 -8v-85q-22 11 -55 11q-72 0 -72 -75v-152h129v-60h-129v-189q0 -72 -41.5 -112t-112.5 -40q-33 0 -57 8v85q24 -12 55 -12q35 0 53.5 20t18.5 55z" />
    <glyph glyph-name="AEacute" unicode="&#x1fc;" horiz-adv-x="883" 
d="M818 0h-366v190h-245l-129 -190h-106l467 680h379v-82h-280v-215h260v-82h-260v-219h280v-82zM254 273h198v292zM655 874h74l-85 -147h-65z" />
    <glyph glyph-name="aeacute" unicode="&#x1fd;" horiz-adv-x="851" 
d="M816 214h-389q7 -68 53.5 -108t115.5 -40q97 0 175 61v-86q-73 -51 -183 -51q-71 0 -123 28.5t-79 76.5q-21 -46 -67.5 -75.5t-107.5 -29.5q-85 0 -133 46.5t-48 115.5q0 68 48.5 114t122.5 46q38 0 73 -16.5t54 -40.5v56q0 55 -32.5 82.5t-80.5 27.5q-67 0 -132 -40v82
q68 34 140 34q62 0 106.5 -26.5t61.5 -79.5q31 49 82.5 77.5t112.5 28.5q103 0 169 -69t66 -170q0 -26 -5 -44zM113 152q0 -41 31.5 -69.5t75.5 -28.5t75.5 28.5t31.5 69.5q0 39 -32 67.5t-75 28.5q-44 0 -75.5 -28t-31.5 -68zM585 425q-65 0 -109.5 -42.5t-49.5 -104.5h314
q-1 65 -45.5 106t-109.5 41zM451 696h74l-85 -147h-65z" />
    <glyph glyph-name="Oslashacute" unicode="&#x1fe;" horiz-adv-x="785" 
d="M42 340q0 149 100.5 249.5t249.5 100.5q102 0 187 -52l45 63l47 -32l-47 -63q56 -48 87 -117t31 -149q0 -149 -100.5 -249.5t-249.5 -100.5q-100 0 -184 49l-42 -58l-43 32l41 57q-57 48 -89.5 118t-32.5 152zM132 340q0 -121 85 -198l310 425q-62 38 -135 38
q-111 0 -185.5 -77t-74.5 -188zM653 340q0 117 -82 193l-310 -422q58 -36 131 -36q111 0 186 76.5t75 188.5zM435 874h74l-85 -147h-65z" />
    <glyph glyph-name="oslashacute" unicode="&#x1ff;" horiz-adv-x="581" 
d="M37 244q0 106 73.5 179.5t179.5 73.5q70 0 129 -35l31 42l46 -32l-32 -43q79 -74 79 -185q0 -108 -72.5 -181t-180.5 -73q-69 0 -125 32l-29 -41l-43 32l28 39q-84 76 -84 192zM117 244q0 -76 53 -126l203 280q-39 23 -83 23q-72 0 -122.5 -52t-50.5 -125zM463 244
q0 72 -48 118l-202 -276q34 -20 77 -20q74 0 123.5 51.5t49.5 126.5zM339 696h74l-85 -147h-65z" />
    <glyph glyph-name="Scommaaccent" unicode="&#x218;" horiz-adv-x="480" 
d="M409 653v-97q-68 53 -148 53q-55 0 -87 -26t-32 -69q0 -50 63 -90l118 -74q62 -39 88.5 -80t26.5 -95q0 -78 -56 -131.5t-159 -53.5q-87 0 -167 41v101q73 -61 165 -61q59 0 92.5 29t33.5 71q0 54 -74 100l-117 74q-57 35 -81.5 75t-24.5 92q0 73 53 125.5t160 52.5
q83 0 146 -37zM236 -215h-66l25 148h83z" />
    <glyph glyph-name="scommaaccent" unicode="&#x219;" horiz-adv-x="382" 
d="M322 472v-88q-53 39 -111 39q-38 0 -58.5 -17.5t-20.5 -44.5q0 -19 10 -31.5t33 -26.5l86 -51q82 -49 82 -126q0 -62 -45 -99t-122 -37q-68 0 -126 29v90q52 -46 122 -46q40 0 62.5 17.5t22.5 45.5q0 36 -50 66l-90 54q-72 42 -72 117q0 59 43.5 96.5t121.5 37.5
q62 0 112 -25zM180 -215h-66l25 148h83z" />
    <glyph glyph-name="uni021A" unicode="&#x21a;" horiz-adv-x="484" 
d="M200 0v598h-182v82h448v-82h-180v-598h-86zM241 -215h-66l25 148h83z" />
    <glyph glyph-name="uni021B" unicode="&#x21b;" horiz-adv-x="300" 
d="M191 0h-83v415h-91v72h95v119l79 21v-140h96v-72h-96v-415zM147 -215h-66l25 148h83z" />
    <glyph glyph-name="dotlessj" unicode="&#x237;" horiz-adv-x="221" 
d="M69 -72v559h83v-560q0 -71 -34 -106.5t-93 -35.5q-29 0 -49 10v85q22 -13 43 -13q50 0 50 61z" />
    <glyph glyph-name="circumflex" unicode="&#x2c6;" horiz-adv-x="580" 
d="M247 696h85l98 -147h-67l-73 106l-74 -106h-67z" />
    <glyph glyph-name="caron" unicode="&#x2c7;" horiz-adv-x="580" 
d="M332 549h-85l-98 147h67l74 -107l74 107h66z" />
    <glyph glyph-name="breve" unicode="&#x2d8;" horiz-adv-x="580" 
d="M373 687h52q0 -61 -37 -99t-100 -38q-62 0 -98 38t-36 99h50q2 -37 24 -59.5t60 -22.5q39 0 61 22.5t24 59.5z" />
    <glyph glyph-name="dotaccent" unicode="&#x2d9;" horiz-adv-x="580" 
d="M235 634q0 23 15.5 39t38.5 16q25 0 40.5 -15.5t15.5 -39.5q0 -23 -15.5 -38.5t-40.5 -15.5q-23 0 -38.5 15.5t-15.5 38.5z" />
    <glyph glyph-name="ring" unicode="&#x2da;" horiz-adv-x="580" 
d="M188 632q0 41 27.5 68.5t72.5 27.5q47 0 75 -27.5t28 -68.5q0 -40 -28 -68t-75 -28q-45 0 -72.5 28t-27.5 68zM234 632q0 -23 15 -38t39 -15q26 0 41 15t15 38t-15 38t-41 15q-24 0 -39 -15t-15 -38z" />
    <glyph glyph-name="ogonek" unicode="&#x2db;" horiz-adv-x="580" 
d="M378 1l1 -1l-77 -54q-34 -24 -34 -52q0 -34 36 -34q31 0 68 30v-65q-42 -21 -78 -21q-45 0 -71.5 20.5t-26.5 57.5q0 52 53 85l91 57z" />
    <glyph glyph-name="tilde" unicode="&#x2dc;" horiz-adv-x="580" 
d="M429 639v-64q-34 27 -70 27q-22 0 -66.5 -19t-74.5 -19q-43 0 -67 22v63q25 -25 67 -25q24 0 66 18.5t75 18.5q36 0 70 -22z" />
    <glyph glyph-name="hungarumlaut" unicode="&#x2dd;" horiz-adv-x="580" 
d="M214 696h74l-85 -147h-65zM368 696h74l-85 -147h-65z" />
    <glyph glyph-name="pi" unicode="&#x3c0;" horiz-adv-x="599" 
d="M490 0h-83v415h-216v-415h-83v415h-91v72h568v-72h-95v-415z" />
    <glyph glyph-name="Wgrave" unicode="&#x1e80;" horiz-adv-x="969" 
d="M216 0l-197 680h96l155 -569l183 497l-23 72h89l181 -569l154 569h96l-196 -680h-97l-162 492l-183 -492h-96zM366 874h74l76 -147h-66z" />
    <glyph glyph-name="wgrave" unicode="&#x1e81;" horiz-adv-x="771" 
d="M20 487h87l112 -383l118 322l-24 61h85l154 -383l112 383h87l-150 -487h-88l-135 330l-120 -330h-89zM253 696h74l76 -147h-66z" />
    <glyph glyph-name="Wacute" unicode="&#x1e82;" horiz-adv-x="969" 
d="M216 0l-197 680h96l155 -569l183 497l-23 72h89l181 -569l154 569h96l-196 -680h-97l-162 492l-183 -492h-96zM506 874h74l-85 -147h-65z" />
    <glyph glyph-name="wacute" unicode="&#x1e83;" horiz-adv-x="771" 
d="M20 487h87l112 -383l118 322l-24 61h85l154 -383l112 383h87l-150 -487h-88l-135 330l-120 -330h-89zM406 696h74l-85 -147h-65z" />
    <glyph glyph-name="Wdieresis" unicode="&#x1e84;" horiz-adv-x="969" 
d="M216 0l-197 680h96l155 -569l183 497l-23 72h89l181 -569l154 569h96l-196 -680h-97l-162 492l-183 -492h-96zM335 812q0 22 14.5 37t36.5 15t36.5 -15t14.5 -37t-14.5 -36.5t-36.5 -14.5t-36.5 14.5t-14.5 36.5zM525 812q0 22 14.5 37t35.5 15q23 0 37.5 -15t14.5 -37
t-14.5 -36.5t-37.5 -14.5q-21 0 -35.5 14.5t-14.5 36.5z" />
    <glyph glyph-name="wdieresis" unicode="&#x1e85;" horiz-adv-x="771" 
d="M20 487h87l112 -383l118 322l-24 61h85l154 -383l112 383h87l-150 -487h-88l-135 330l-120 -330h-89zM227 634q0 22 14.5 37t36.5 15t36.5 -15t14.5 -37t-14.5 -36.5t-36.5 -14.5t-36.5 14.5t-14.5 36.5zM417 634q0 22 14.5 37t35.5 15q23 0 37.5 -15t14.5 -37
t-14.5 -36.5t-37.5 -14.5q-21 0 -35.5 14.5t-14.5 36.5z" />
    <glyph glyph-name="Ygrave" unicode="&#x1ef2;" horiz-adv-x="563" 
d="M238 0v301l-225 379h98l170 -293l171 293h99l-227 -380v-300h-86zM167 874h74l76 -147h-66z" />
    <glyph glyph-name="ygrave" unicode="&#x1ef3;" horiz-adv-x="498" 
d="M94 -205l109 242l-188 450h95l139 -345l143 345h95l-297 -692h-96zM140 696h74l76 -147h-66z" />
    <glyph glyph-name="endash" unicode="&#x2013;" horiz-adv-x="581" 
d="M62 322h457v-74h-457v74z" />
    <glyph glyph-name="emdash" unicode="&#x2014;" horiz-adv-x="721" 
d="M62 322h597v-74h-597v74z" />
    <glyph glyph-name="quoteleft" unicode="&#x2018;" horiz-adv-x="220" 
d="M97 680h76l-32 -241h-94z" />
    <glyph glyph-name="quoteright" unicode="&#x2019;" horiz-adv-x="216" 
d="M129 440h-76l31 240h95z" />
    <glyph glyph-name="quotesinglbase" unicode="&#x201a;" horiz-adv-x="250" 
d="M134 -130h-76l31 240h95z" />
    <glyph glyph-name="quotedblleft" unicode="&#x201c;" horiz-adv-x="405" 
d="M97 680h76l-32 -241h-94zM282 680h76l-32 -241h-94z" />
    <glyph glyph-name="quotedblright" unicode="&#x201d;" horiz-adv-x="402" 
d="M129 440h-76l31 240h95zM314 440h-76l31 240h95z" />
    <glyph glyph-name="quotedblbase" unicode="&#x201e;" horiz-adv-x="435" 
d="M134 -130h-76l31 240h95zM319 -130h-76l31 240h95z" />
    <glyph glyph-name="dagger" unicode="&#x2020;" horiz-adv-x="420" 
d="M241 247v-452h-60v452h-151v55h151v388h60v-388h150v-55h-150z" />
    <glyph glyph-name="daggerdbl" unicode="&#x2021;" horiz-adv-x="466" 
d="M262 105h153v-55h-153v-255h-60v255h-148v55h148v295h-151v55h151v235h60v-235h150v-55h-150v-295z" />
    <glyph glyph-name="bullet" unicode="&#x2022;" horiz-adv-x="374" 
d="M187 177q-48 0 -79.5 30.5t-31.5 76.5t31.5 76.5t79.5 30.5q49 0 80 -30t31 -77t-31 -77t-80 -30z" />
    <glyph glyph-name="ellipsis" unicode="&#x2026;" horiz-adv-x="691" 
d="M54 53q0 28 18 46t46 18q27 0 45.5 -18t18.5 -46q0 -27 -18.5 -45t-45.5 -18q-28 0 -46 18t-18 45zM282 53q0 28 18 46t45 18q28 0 46 -18t18 -46q0 -27 -18 -45t-46 -18q-27 0 -45 18t-18 45zM509 53q0 28 18 46t45 18q28 0 46.5 -18t18.5 -46q0 -27 -18.5 -45
t-46.5 -18q-27 0 -45 18t-18 45z" />
    <glyph glyph-name="perthousand" unicode="&#x2030;" horiz-adv-x="1171" 
d="M233 0l302 680h66l-303 -680h-65zM187 628q-38 0 -60 -22t-22 -56v-128q0 -34 22 -56t60 -22t60 22t22 56v128q0 34 -22 56t-60 22zM187 690q63 0 104.5 -39t41.5 -99v-132q0 -60 -41.5 -99.5t-104.5 -39.5t-104.5 39.5t-41.5 99.5v132q0 60 41.5 99t104.5 39zM645 337
q-37 0 -59 -22t-22 -56v-129q0 -34 22 -56t59 -22t59.5 22t22.5 56v129q0 34 -22.5 56t-59.5 22zM645 399q63 0 104.5 -39t41.5 -99v-132q0 -60 -41.5 -99.5t-104.5 -39.5q-62 0 -103.5 39.5t-41.5 99.5v132q0 60 41.5 99t103.5 39zM984 337q-37 0 -59 -22t-22 -56v-129
q0 -34 22 -56t59 -22t59.5 22t22.5 56v129q0 34 -22.5 56t-59.5 22zM984 399q63 0 104.5 -39t41.5 -99v-132q0 -60 -41.5 -99.5t-104.5 -39.5q-62 0 -103.5 39.5t-41.5 99.5v132q0 60 41.5 99t103.5 39z" />
    <glyph glyph-name="guilsinglleft" unicode="&#x2039;" horiz-adv-x="292" 
d="M39 285l162 214l45 -35l-121 -180l121 -179l-45 -34z" />
    <glyph glyph-name="guilsinglright" unicode="&#x203a;" horiz-adv-x="292" 
d="M253 284l-162 -214l-45 35l121 180l-121 179l45 34z" />
    <glyph glyph-name="fraction" unicode="&#x2044;" horiz-adv-x="160" 
d="M-104 0l302 680h66l-303 -680h-65z" />
    <glyph glyph-name="zerosuperior" unicode="&#x2070;" horiz-adv-x="368" 
d="M184 755q-37 0 -59.5 -22t-22.5 -56v-129q0 -34 22.5 -56t59.5 -22t59.5 22t22.5 56v129q0 34 -22.5 56t-59.5 22zM184 817q63 0 104.5 -39t41.5 -99v-132q0 -60 -41.5 -99.5t-104.5 -39.5t-104.5 39.5t-41.5 99.5v132q0 60 41.5 99t104.5 39z" />
    <glyph glyph-name="foursuperior" unicode="&#x2074;" horiz-adv-x="348" 
d="M324 496h-55v-82h-64v82h-189v55l189 260h64v-253h55v-62zM84 558h121v164z" />
    <glyph glyph-name="fivesuperior" unicode="&#x2075;" horiz-adv-x="311" 
d="M272 750h-137l-12 -83h1q71 0 112.5 -34.5t41.5 -90.5q0 -64 -41 -99t-104 -35q-56 0 -104 27v79q47 -42 101 -42q34 0 58 19.5t24 50.5q0 65 -99 65h-56l21 204h194v-61z" />
    <glyph glyph-name="sixsuperior" unicode="&#x2076;" horiz-adv-x="346" 
d="M254 811l-91 -128q4 1 13 1q67 0 107.5 -40t40.5 -96q0 -59 -43 -99.5t-105 -40.5q-63 0 -106 40.5t-43 99.5q0 44 28 85l123 178h76zM259 548q0 32 -24 54t-59 22q-36 0 -60 -22t-24 -54t24 -54t60 -22q35 0 59 22t24 54z" />
    <glyph glyph-name="sevensuperior" unicode="&#x2077;" horiz-adv-x="260" 
d="M244 757l-134 -343h-74l138 336h-152v61h222v-54z" />
    <glyph glyph-name="eightsuperior" unicode="&#x2078;" horiz-adv-x="331" 
d="M44 709q0 46 35 77t86 31t86.5 -31t35.5 -77q0 -57 -51 -82q65 -30 65 -98q0 -52 -39 -86.5t-97 -34.5q-57 0 -96 34.5t-39 86.5q0 68 65 98q-51 25 -51 82zM91 530q0 -27 21.5 -46t52.5 -19q32 0 53.5 19t21.5 46t-21.5 46t-53.5 19q-31 0 -52.5 -19t-21.5 -46zM105 708
q0 -23 17 -38t44 -15q26 0 43 15.5t17 37.5t-17 37t-43 15t-43.5 -15t-17.5 -37z" />
    <glyph glyph-name="ninesuperior" unicode="&#x2079;" horiz-adv-x="345" 
d="M92 414l90 127h-12q-67 0 -107.5 40t-40.5 96q0 60 43 100.5t105 40.5q63 0 106 -40.5t43 -100.5q0 -41 -28 -85l-123 -178h-76zM87 677q0 -32 24 -53.5t59 -21.5q36 0 60 21.5t24 53.5t-24 54.5t-60 22.5q-35 0 -59 -22.5t-24 -54.5z" />
    <glyph glyph-name="zeroinferior" unicode="&#x2080;" horiz-adv-x="368" 
d="M184 211q-37 0 -59.5 -22t-22.5 -56v-129q0 -34 22.5 -56t59.5 -22t59.5 22t22.5 56v129q0 34 -22.5 56t-59.5 22zM184 273q63 0 104.5 -39t41.5 -99v-132q0 -60 -41.5 -99.5t-104.5 -39.5t-104.5 39.5t-41.5 99.5v132q0 60 41.5 99t104.5 39z" />
    <glyph glyph-name="oneinferior" unicode="&#x2081;" horiz-adv-x="293" 
d="M26 -130v61h103v275h-90v61h154v-336h88v-61h-255z" />
    <glyph glyph-name="twoinferior" unicode="&#x2082;" horiz-adv-x="293" 
d="M29 -130v56l126 147q40 45 40 78q0 27 -18 43t-48 16q-51 0 -92 -38v71q42 30 97 30q60 0 93 -31.5t33 -79.5q0 -57 -50 -115l-99 -115h146v-62h-228z" />
    <glyph glyph-name="threeinferior" unicode="&#x2083;" horiz-adv-x="293" 
d="M66 45v62h61q25 0 42 14.5t17 36.5q0 23 -17.5 37t-46.5 14q-51 0 -82 -23v71q32 16 83 16q57 0 93 -30.5t36 -76.5q0 -63 -52 -89q63 -26 63 -98q0 -50 -39 -82.5t-98 -32.5q-51 0 -91 18v75q38 -29 88 -29q32 0 53.5 16.5t21.5 42.5t-20 42t-51 16h-61z" />
    <glyph glyph-name="fourinferior" unicode="&#x2084;" horiz-adv-x="348" 
d="M324 -48h-55v-82h-64v82h-189v55l189 260h64v-253h55v-62zM84 14h121v164z" />
    <glyph glyph-name="fiveinferior" unicode="&#x2085;" horiz-adv-x="311" 
d="M272 206h-137l-12 -83h1q71 0 112.5 -34.5t41.5 -90.5q0 -64 -41 -99t-104 -35q-56 0 -104 27v79q47 -42 101 -42q34 0 58 19.5t24 50.5q0 65 -99 65h-56l21 204h194v-61z" />
    <glyph glyph-name="sixinferior" unicode="&#x2086;" horiz-adv-x="346" 
d="M254 267l-91 -128q4 1 13 1q67 0 107.5 -40t40.5 -96q0 -59 -43 -99.5t-105 -40.5q-63 0 -106 40.5t-43 99.5q0 44 28 85l123 178h76zM259 4q0 32 -24 54t-59 22q-36 0 -60 -22t-24 -54t24 -54t60 -22q35 0 59 22t24 54z" />
    <glyph glyph-name="seveninferior" unicode="&#x2087;" horiz-adv-x="260" 
d="M244 213l-134 -343h-74l138 336h-152v61h222v-54z" />
    <glyph glyph-name="eightinferior" unicode="&#x2088;" horiz-adv-x="331" 
d="M44 165q0 46 35 77t86 31t86.5 -31t35.5 -77q0 -57 -51 -82q65 -30 65 -98q0 -52 -39 -86.5t-97 -34.5q-57 0 -96 34.5t-39 86.5q0 68 65 98q-51 25 -51 82zM91 -14q0 -27 21.5 -46t52.5 -19q32 0 53.5 19t21.5 46t-21.5 46t-53.5 19q-31 0 -52.5 -19t-21.5 -46zM105 164
q0 -23 17 -38t44 -15q26 0 43 15.5t17 37.5t-17 37t-43 15t-43.5 -15t-17.5 -37z" />
    <glyph glyph-name="nineinferior" unicode="&#x2089;" horiz-adv-x="345" 
d="M92 -130l90 127h-12q-67 0 -107.5 40t-40.5 96q0 60 43 100.5t105 40.5q63 0 106 -40.5t43 -100.5q0 -41 -28 -85l-123 -178h-76zM87 133q0 -32 24 -53.5t59 -21.5q36 0 60 21.5t24 53.5t-24 54.5t-60 22.5q-35 0 -59 -22.5t-24 -54.5z" />
    <glyph glyph-name="Euro" unicode="&#x20ac;" 
d="M33 437h56v20q0 103 66 168t169 65q51 0 94.5 -18t69.5 -44l-26 -87q-20 29 -57.5 47t-80.5 18q-69 0 -109 -41.5t-40 -110.5v-17h249l-15 -59h-234v-86h208l-15 -60h-193v-8q0 -68 39 -109t108 -41q88 0 141 66l32 -74q-65 -76 -173 -76q-103 0 -168 64.5t-65 167.5v10
h-72l15 60h57v86h-71z" />
    <glyph glyph-name="afii61289" unicode="&#x2113;" horiz-adv-x="378" 
d="M344 34q-55 -44 -117 -44q-101 0 -101 120v127q-46 -39 -77 -58l-24 41q49 34 101 79v225q0 83 30 124.5t81 41.5q49 0 74.5 -34t25.5 -95q0 -72 -40 -140t-118 -143v-158q0 -38 14.5 -57.5t39.5 -19.5q42 0 91 38zM283 557q0 74 -50 74q-54 0 -54 -95v-188
q104 108 104 209z" />
    <glyph glyph-name="uni2117" unicode="&#x2117;" horiz-adv-x="812" 
d="M46 343q0 157 104.5 258t256.5 101t256 -101t104 -258q0 -156 -104 -258.5t-256 -102.5t-256.5 102.5t-104.5 258.5zM103 343q0 -136 87 -221t217 -85q129 0 215.5 85t86.5 221t-86.5 220t-215.5 84q-130 0 -217 -84t-87 -220zM318 152v387h128q59 0 94.5 -32t35.5 -87
t-36 -87t-94 -32h-64v-149h-64zM510 420q0 28 -18 43t-48 15h-62v-116h62q30 0 48 14.5t18 43.5z" />
    <glyph glyph-name="trademark" unicode="&#x2122;" horiz-adv-x="779" 
d="M145 344v285h-89v51h233v-51h-91v-285h-53zM553 344h-48l-101 237v-237h-53v336h63l115 -268l115 268h62v-336h-53v237z" />
    <glyph glyph-name="Omega" unicode="&#x2126;" horiz-adv-x="802" 
d="M401 690q148 0 249 -98t101 -239q0 -97 -44.5 -168.5t-119.5 -102.5h132v-82h-286v82q101 4 165 78t64 181q0 111 -75 187.5t-186 76.5t-186 -76.5t-75 -187.5q0 -107 64 -181t166 -78v-82h-286v82h132q-76 31 -120.5 102.5t-44.5 168.5q0 141 101 239t249 98z" />
    <glyph glyph-name="estimated" unicode="&#x212e;" horiz-adv-x="742" 
d="M704 338h-517v-238q74 -74 189 -74q165 0 256 154l34 -19q-59 -92 -125 -131.5t-165 -39.5q-147 0 -237 99t-90 249q0 151 90 250.5t237 99.5q146 0 236.5 -98t91.5 -252zM187 378h381v199q-81 75 -193 75q-113 0 -188 -75v-199z" />
    <glyph glyph-name="onethird" unicode="&#x2153;" horiz-adv-x="794" 
d="M236 0l302 680h66l-303 -680h-65zM43 283v61h103v275h-90v61h154v-336h88v-61h-255zM560 175v62h61q25 0 42 14.5t17 36.5q0 23 -17.5 37t-46.5 14q-51 0 -82 -23v71q32 16 83 16q57 0 93 -30.5t36 -76.5q0 -63 -52 -89q63 -26 63 -98q0 -50 -39 -82.5t-98 -32.5
q-51 0 -91 18v75q38 -29 88 -29q32 0 53.5 16.5t21.5 42.5t-20 42t-51 16h-61z" />
    <glyph glyph-name="twothirds" unicode="&#x2154;" horiz-adv-x="773" 
d="M215 0l302 680h66l-303 -680h-65zM539 175v62h61q25 0 42 14.5t17 36.5q0 23 -17.5 37t-46.5 14q-51 0 -82 -23v71q32 16 83 16q57 0 93 -30.5t36 -76.5q0 -63 -52 -89q63 -26 63 -98q0 -50 -39 -82.5t-98 -32.5q-51 0 -91 18v75q38 -29 88 -29q32 0 53.5 16.5t21.5 42.5
t-20 42t-51 16h-61zM43 283v56l126 147q40 45 40 78q0 27 -18 43t-48 16q-51 0 -92 -38v71q42 30 97 30q60 0 93 -31.5t33 -79.5q0 -57 -50 -115l-99 -115h146v-62h-228z" />
    <glyph glyph-name="oneeighth" unicode="&#x215b;" horiz-adv-x="817" 
d="M236 0l302 680h66l-303 -680h-65zM43 283v61h103v275h-90v61h154v-336h88v-61h-255zM524 294q0 46 35 77t86 31t86.5 -31t35.5 -77q0 -56 -51 -82q65 -30 65 -98q0 -52 -39 -86.5t-97 -34.5q-57 0 -96 34.5t-39 86.5q0 68 65 98q-51 25 -51 82zM571 115q0 -27 21.5 -46
t52.5 -19q32 0 53.5 19t21.5 46t-21.5 46t-53.5 19q-31 0 -52.5 -19t-21.5 -46zM585 293q0 -23 17 -38t44 -15q26 0 43 15.5t17 37.5t-17 37t-43 15t-43.5 -15t-17.5 -37z" />
    <glyph glyph-name="threeeighths" unicode="&#x215c;" horiz-adv-x="795" 
d="M214 0l302 680h66l-303 -680h-65zM79 458v62h61q25 0 42 14.5t17 36.5q0 23 -17.5 37t-46.5 14q-51 0 -82 -23v71q32 16 83 16q57 0 93 -30.5t36 -76.5q0 -63 -52 -89q63 -26 63 -98q0 -50 -39 -82.5t-98 -32.5q-51 0 -91 18v75q38 -29 88 -29q32 0 53.5 16.5t21.5 42.5
t-20 42t-51 16h-61zM502 294q0 46 35 77t86 31t86.5 -31t35.5 -77q0 -56 -51 -82q65 -30 65 -98q0 -52 -39 -86.5t-97 -34.5q-57 0 -96 34.5t-39 86.5q0 68 65 98q-51 25 -51 82zM549 115q0 -27 21.5 -46t52.5 -19q32 0 53.5 19t21.5 46t-21.5 46t-53.5 19q-31 0 -52.5 -19
t-21.5 -46zM563 293q0 -23 17 -38t44 -15q26 0 43 15.5t17 37.5t-17 37t-43 15t-43.5 -15t-17.5 -37z" />
    <glyph glyph-name="fiveeighths" unicode="&#x215d;" horiz-adv-x="789" 
d="M208 0l302 680h66l-303 -680h-65zM496 294q0 46 35 77t86 31t86.5 -31t35.5 -77q0 -56 -51 -82q65 -30 65 -98q0 -52 -39 -86.5t-97 -34.5q-57 0 -96 34.5t-39 86.5q0 68 65 98q-51 25 -51 82zM543 115q0 -27 21.5 -46t52.5 -19q32 0 53.5 19t21.5 46t-21.5 46t-53.5 19
q-31 0 -52.5 -19t-21.5 -46zM557 293q0 -23 17 -38t44 -15q26 0 43 15.5t17 37.5t-17 37t-43 15t-43.5 -15t-17.5 -37zM281 619h-137l-12 -83h1q71 0 112.5 -34.5t41.5 -90.5q0 -64 -41 -99t-104 -35q-56 0 -104 27v79q47 -42 101 -42q34 0 58 19.5t24 50.5q0 65 -99 65h-56
l21 204h194v-61z" />
    <glyph glyph-name="seveneighths" unicode="&#x215e;" horiz-adv-x="733" 
d="M151 0l302 680h66l-303 -680h-65zM439 294q0 46 35 77t86 31t86.5 -31t35.5 -77q0 -56 -51 -82q65 -30 65 -98q0 -52 -39 -86.5t-97 -34.5q-57 0 -96 34.5t-39 86.5q0 68 65 98q-51 25 -51 82zM486 115q0 -27 21.5 -46t52.5 -19q32 0 53.5 19t21.5 46t-21.5 46t-53.5 19
q-31 0 -52.5 -19t-21.5 -46zM500 293q0 -23 17 -38t44 -15q26 0 43 15.5t17 37.5t-17 37t-43 15t-43.5 -15t-17.5 -37zM260 626l-134 -343h-74l138 336h-152v61h222v-54z" />
    <glyph glyph-name="arrowleft" unicode="&#x2190;" horiz-adv-x="750" 
d="M59 285l260 261l41 -40l-189 -191h503v-61h-503l189 -190l-41 -41z" />
    <glyph glyph-name="arrowup" unicode="&#x2191;" horiz-adv-x="750" 
d="M366 592l262 -260l-41 -42l-191 189v-502h-61v502l-190 -188l-40 41z" />
    <glyph glyph-name="arrowright" unicode="&#x2192;" horiz-adv-x="750" 
d="M673 284l-260 -261l-41 40l189 191h-502v61h502l-188 190l40 41z" />
    <glyph glyph-name="arrowdown" unicode="&#x2193;" horiz-adv-x="750" 
d="M366 -23l-262 260l41 41l191 -189v502h61v-502l190 188l40 -40z" />
    <glyph glyph-name="uni2196" unicode="&#x2196;" horiz-adv-x="750" 
d="M149 502h370v-57h-270l356 -356l-43 -43l-357 356v-269h-56v369z" />
    <glyph glyph-name="uni2197" unicode="&#x2197;" horiz-adv-x="750" 
d="M605 502v-370h-57v270l-356 -356l-43 43l356 356h-269v57h369z" />
    <glyph glyph-name="uni2198" unicode="&#x2198;" horiz-adv-x="750" 
d="M605 46h-370v56h270l-356 357l43 43l356 -357v270h57v-369z" />
    <glyph glyph-name="uni2199" unicode="&#x2199;" horiz-adv-x="750" 
d="M149 46v370h56v-270l357 356l43 -43l-357 -357h270v-56h-369z" />
    <glyph glyph-name="partialdiff" unicode="&#x2202;" horiz-adv-x="550" 
d="M275 463q18 0 36 -3l-148 220h103l201 -307q46 -69 46 -146q0 -101 -68.5 -169t-169.5 -68t-168.5 68t-67.5 169q0 102 69 169t167 67zM127 227q0 -64 42.5 -107.5t105.5 -43.5q64 0 107 43.5t43 107.5q0 63 -43.5 107t-106.5 44t-105.5 -44t-42.5 -107z" />
    <glyph glyph-name="Delta" unicode="&#x2206;" horiz-adv-x="657" 
d="M24 0l256 680h97l256 -680h-609zM328 567l-178 -485h358z" />
    <glyph glyph-name="product" unicode="&#x220f;" horiz-adv-x="733" 
d="M561 0v598h-389v-598h-86v680h561v-680h-86z" />
    <glyph glyph-name="summation" unicode="&#x2211;" horiz-adv-x="459" 
d="M410 0h-365v79l190 260l-190 262v79h365v-82h-256l168 -227v-58l-168 -231h256v-82z" />
    <glyph glyph-name="minus" unicode="&#x2212;" 
d="M37 252v67h445v-67h-445z" />
    <glyph glyph-name="uni2215" unicode="&#x2215;" horiz-adv-x="160" 
d="M-104 0l302 680h66l-303 -680h-65z" />
    <glyph glyph-name="uni2219" unicode="&#x2219;" horiz-adv-x="240" 
d="M56 286q0 28 18 46t46 18q27 0 45.5 -18t18.5 -46q0 -27 -18.5 -45t-45.5 -18q-28 0 -46 18t-18 45z" />
    <glyph glyph-name="radical" unicode="&#x221a;" horiz-adv-x="615" 
d="M195 -206l-187 491h97l138 -389l282 784h97l-331 -886h-96z" />
    <glyph glyph-name="infinity" unicode="&#x221e;" horiz-adv-x="765" 
d="M712 286q0 -70 -43.5 -113.5t-110.5 -43.5q-103 0 -174 108q-76 -107 -178 -107q-65 0 -109 41.5t-44 112.5q0 70 43.5 113.5t109.5 43.5q97 0 178 -113q73 114 174 114q66 0 110 -42.5t44 -113.5zM643 285q0 42 -26.5 67.5t-66.5 25.5t-69 -25.5t-58 -69.5
q61 -91 127 -91q41 0 67 25.5t26 67.5zM344 283q-63 95 -130 95q-38 0 -65 -26.5t-27 -67.5q0 -43 26.5 -67.5t65.5 -24.5q72 0 130 91z" />
    <glyph glyph-name="integral" unicode="&#x222b;" 
d="M218 146v402q0 72 41 112t112 40q34 0 58 -8v-85q-22 11 -55 11q-36 0 -54.5 -19.5t-18.5 -55.5v-401q0 -72 -41 -112t-112 -40q-33 0 -57 8v85q24 -12 55 -12q35 0 53.5 20t18.5 55z" />
    <glyph glyph-name="approxequal" unicode="&#x2248;" 
d="M480 227v-70q-42 -39 -106 -39q-43 0 -121 32.5t-114 32.5q-57 0 -103 -42v70q50 39 108 39q41 0 117.5 -32.5t116.5 -32.5q62 0 102 42zM481 423v-70q-44 -39 -106 -39q-43 0 -121 32.5t-115 32.5q-58 0 -102 -42v70q48 39 107 39q41 0 118.5 -32.5t116.5 -32.5
q62 0 102 42z" />
    <glyph glyph-name="notequal" unicode="&#x2260;" 
d="M37 435h232l30 122l54 -13l-28 -109h157v-66h-173l-42 -167h215v-66h-231l-32 -126l-52 13l28 113h-158v66h174l42 167h-216v66z" />
    <glyph glyph-name="lessequal" unicode="&#x2264;" 
d="M42 47v66h445v-66h-445zM487 451v-65l-445 -175v70l362 137l-362 138v71z" />
    <glyph glyph-name="greaterequal" unicode="&#x2265;" 
d="M477 113v-66h-445v66h445zM32 386v65l445 176v-71l-361 -138l361 -137v-70z" />
    <glyph glyph-name="lozenge" unicode="&#x25ca;" horiz-adv-x="566" 
d="M533 341l-204 -341h-94l-202 341l202 339h94zM132 340l150 -255l151 256l-151 254z" />
    <glyph glyph-name="commaaccent" unicode="&#xf6c3;" horiz-adv-x="580" 
d="M302 -215h-66l25 148h83z" />
    <glyph glyph-name="commaaccent.alt" horiz-adv-x="610" 
d="M306 697h66l-25 -148h-82z" />
    <glyph glyph-name="zero.tf" 
d="M260 606q-65 0 -102 -40.5t-37 -105.5v-240q0 -65 37 -105.5t102 -40.5t102 40.5t37 105.5v240q0 65 -37 105.5t-102 40.5zM260 690q99 0 162 -64t63 -163v-246q0 -99 -63 -163t-162 -64t-162 64t-63 163v246q0 99 63 163t162 64z" />
    <glyph glyph-name="one.tf" 
d="M69 0v82h171v516h-153v82h239v-598h145v-82h-402z" />
    <glyph glyph-name="two.tf" 
d="M63 0v76l222 265q37 45 56 78.5t19 71.5q0 52 -34.5 82.5t-90.5 30.5q-89 0 -158 -69v100q67 55 163 55q97 0 152.5 -52.5t55.5 -133.5q0 -61 -23 -105.5t-66 -94.5l-187 -222h273v-82h-382z" />
    <glyph glyph-name="three.tf" 
d="M127 314v82h102q48 0 80 30t32 74q0 47 -32.5 75.5t-87.5 28.5q-85 0 -139 -40v94q60 32 141 32q95 0 151.5 -49.5t56.5 -130.5q0 -54 -26.5 -94.5t-67.5 -59.5q51 -20 82.5 -65t31.5 -106q0 -86 -64 -140.5t-161 -54.5q-88 0 -152 33v100q59 -47 148 -47q60 0 100 33
t40 86q0 51 -37.5 85t-94.5 34h-103z" />
    <glyph glyph-name="four.tf" 
d="M499 147h-92v-147h-86v147h-311v74l311 459h86v-451h92v-82zM103 229h218v323z" />
    <glyph glyph-name="five.tf" 
d="M448 598h-229l-22 -174h22q108 0 172.5 -57t64.5 -153q0 -106 -65 -165t-164 -59q-93 0 -170 52v107q77 -73 166 -73q61 0 102.5 38t41.5 100q0 64 -47 97t-123 33h-91l36 336h306v-82z" />
    <glyph glyph-name="six.tf" 
d="M375 680l-148 -220q18 3 36 3q99 0 168 -67t69 -169q0 -101 -68 -169t-169 -68t-169 68t-68 169q0 76 45 146l202 307h102zM412 227q0 63 -43 107t-106 44t-106 -44t-43 -107q0 -64 43 -107.5t106 -43.5t106 43.5t43 107.5z" />
    <glyph glyph-name="seven.tf" 
d="M448 606l-238 -606h-98l243 598h-270v82h363v-74z" />
    <glyph glyph-name="eight.tf" 
d="M66 509q0 77 56 129t137 52q82 0 138 -52t56 -129q0 -48 -24 -86.5t-65 -59.5q51 -23 81.5 -68t30.5 -103q0 -87 -62.5 -144.5t-154.5 -57.5q-91 0 -153 57.5t-62 144.5q0 58 29.5 103t80.5 68q-40 21 -64 59.5t-24 86.5zM127 193q0 -53 38.5 -89t93.5 -36q57 0 95.5 36
t38.5 89t-38 90.5t-96 37.5q-55 0 -93.5 -37.5t-38.5 -90.5zM149 508q0 -44 31 -74.5t79 -30.5t80 30.5t32 74.5q0 45 -32 74.5t-80 29.5q-47 0 -78.5 -29.5t-31.5 -74.5z" />
    <glyph glyph-name="nine.tf" 
d="M144 0l148 219q-24 -2 -36 -2q-98 0 -167 67t-69 169q0 101 67.5 169t168.5 68t169.5 -68t68.5 -169q0 -77 -46 -146l-201 -307h-103zM108 453q0 -63 42.5 -107t105.5 -44t106.5 44t43.5 107q0 64 -43 107.5t-107 43.5q-63 0 -105.5 -43.5t-42.5 -107.5z" />
    <glyph glyph-name="zero.tosf" 
d="M260 455q-65 0 -102 -40.5t-37 -105.5v-93q0 -65 37 -105.5t102 -40.5t102 40.5t37 105.5v93q0 65 -37 105.5t-102 40.5zM260 536q99 0 162 -64t63 -164v-91q0 -99 -63 -163t-162 -64t-162 64t-63 163v91q0 100 63 164t162 64z" />
    <glyph glyph-name="one.tosf" 
d="M78 0v72h161v389h-143v72h229v-461h135v-72h-382z" />
    <glyph glyph-name="two.tosf" 
d="M70 0v68l131 82q151 93 151 190q0 52 -36.5 83.5t-92.5 31.5q-85 0 -153 -70v99q26 22 70.5 37.5t91.5 15.5q95 0 152.5 -53.5t57.5 -133.5q0 -129 -167 -236l-68 -42h251v-72h-388z" />
    <glyph glyph-name="three.tosf" 
d="M132 172v73h98q46 0 76.5 31t30.5 78q0 48 -32 77.5t-84 29.5q-81 0 -131 -41v91q55 32 135 32q90 0 145.5 -51t55.5 -129q0 -55 -25 -95.5t-64 -59.5q49 -19 78.5 -64t29.5 -107q0 -85 -61.5 -140t-155.5 -55q-82 0 -146 34v94q60 -46 141 -46q57 0 95 34t38 90
q0 53 -36 88.5t-89 35.5h-99z" />
    <glyph glyph-name="four.tosf" 
d="M487 0h-84v-147h-83v147h-302v66l292 467h93v-461h84v-72zM107 72h213v333z" />
    <glyph glyph-name="five.tosf" 
d="M454 461h-241l-26 -184h28q108 0 173 -57t65 -153q0 -106 -66 -165t-165 -59q-90 0 -169 53v99q75 -71 166 -71q65 0 107 39t42 104t-47.5 100t-127.5 35h-91l41 331h311v-72z" />
    <glyph glyph-name="six.tosf" 
d="M373 680l-152 -226q23 5 42 5q99 0 168 -65t69 -167q0 -101 -68 -169t-169 -68t-169 68t-68 169q0 77 46 146l205 307h96zM415 227q0 65 -44 109.5t-108 44.5t-108 -44.5t-44 -109.5t44 -110t108 -45t108 45t44 110z" />
    <glyph glyph-name="seven.tosf" 
d="M451 465l-242 -612h-94l251 608h-285v72h370v-68z" />
    <glyph glyph-name="eight.tosf" 
d="M61 509q0 77 57.5 129t141.5 52t142 -52t58 -129q0 -48 -25.5 -86.5t-68.5 -59.5q54 -23 85 -68t31 -103q0 -87 -64 -144.5t-158 -57.5t-158 57.5t-64 144.5q0 58 31 103t84 68q-42 21 -67 59.5t-25 86.5zM118 193q0 -54 41 -91t101 -37t101 37t41 91t-40.5 92.5
t-101.5 38.5q-60 0 -101 -38t-41 -93zM142 508q0 -45 33 -76t85 -31q51 0 85 31t34 76q0 46 -34 76t-85 30t-84.5 -30t-33.5 -76z" />
    <glyph glyph-name="nine.tosf" 
d="M147 -147l153 225q-25 -5 -43 -5q-99 0 -168 65.5t-69 167.5q0 100 68 168.5t169 68.5t169 -68t68 -169q0 -76 -45 -146l-206 -307h-96zM105 306q0 -65 44 -109.5t108 -44.5t108.5 44.5t44.5 109.5t-44.5 109.5t-108.5 44.5t-108 -44.5t-44 -109.5z" />
    <glyph glyph-name="zero.osf" horiz-adv-x="630" 
d="M42 262q0 116 79 195t194 79t194 -79t79 -195t-79 -194.5t-194 -78.5t-194 78.5t-79 194.5zM127 262q0 -80 54.5 -135.5t133.5 -55.5q80 0 133.5 55.5t53.5 135.5q0 81 -53.5 136t-133.5 55q-79 0 -133.5 -55.5t-54.5 -135.5z" />
    <glyph glyph-name="one.osf" horiz-adv-x="442" 
d="M39 0v72h161v389h-143v72h229v-461h135v-72h-382z" />
    <glyph glyph-name="two.osf" horiz-adv-x="483" 
d="M52 0v68l131 82q151 93 151 190q0 52 -36.5 83.5t-92.5 31.5q-85 0 -153 -70v99q26 22 70.5 37.5t91.5 15.5q95 0 152.5 -53.5t57.5 -133.5q0 -129 -167 -236l-68 -42h251v-72h-388z" />
    <glyph glyph-name="three.osf" horiz-adv-x="449" 
d="M97 172v73h98q46 0 76.5 31t30.5 78q0 48 -32 77.5t-84 29.5q-81 0 -131 -41v91q55 32 135 32q90 0 145.5 -51t55.5 -129q0 -55 -25 -95.5t-64 -59.5q49 -19 78.5 -64t29.5 -107q0 -85 -61.5 -140t-155.5 -55q-82 0 -146 34v94q60 -46 141 -46q57 0 95 34t38 90
q0 53 -36 88.5t-89 35.5h-99z" />
    <glyph glyph-name="four.osf" horiz-adv-x="532" 
d="M503 0h-93v-147h-83v147h-313v66l310 467h86v-461h93v-72zM106 72h221v333z" />
    <glyph glyph-name="five.osf" horiz-adv-x="481" 
d="M435 461h-241l-26 -184h28q108 0 173 -57t65 -153q0 -106 -66 -165t-165 -59q-90 0 -169 53v99q75 -71 166 -71q65 0 107 39t42 104t-47.5 100t-127.5 35h-91l41 331h311v-72z" />
    <glyph glyph-name="six.osf" horiz-adv-x="549" 
d="M387 680l-152 -226q23 5 42 5q99 0 168 -65t69 -167q0 -101 -68 -169t-169 -68t-169 68t-68 169q0 77 46 146l205 307h96zM429 227q0 65 -44 109.5t-108 44.5t-108 -44.5t-44 -109.5t44 -110t108 -45t108 45t44 110z" />
    <glyph glyph-name="seven.osf" horiz-adv-x="405" 
d="M394 465l-242 -612h-94l251 608h-285v72h370v-68z" />
    <glyph glyph-name="eight.osf" horiz-adv-x="538" 
d="M70 509q0 77 57.5 129t141.5 52t142 -52t58 -129q0 -48 -25.5 -86.5t-68.5 -59.5q54 -23 85 -68t31 -103q0 -87 -64 -144.5t-158 -57.5t-158 57.5t-64 144.5q0 58 31 103t84 68q-42 21 -67 59.5t-25 86.5zM127 193q0 -54 41 -91t101 -37t101 37t41 91t-40.5 92.5
t-101.5 38.5q-60 0 -101 -38t-41 -93zM151 508q0 -45 33 -76t85 -31q51 0 85 31t34 76q0 46 -34 76t-85 30t-84.5 -30t-33.5 -76z" />
    <glyph glyph-name="nine.osf" horiz-adv-x="535" 
d="M155 -147l153 225q-25 -5 -43 -5q-99 0 -168 65.5t-69 167.5q0 100 68 168.5t169 68.5t169 -68t68 -169q0 -76 -45 -146l-206 -307h-96zM113 306q0 -65 44 -109.5t108 -44.5t108.5 44.5t44.5 109.5t-44.5 109.5t-108.5 44.5t-108 -44.5t-44 -109.5z" />
    <glyph glyph-name="zero.denom" horiz-adv-x="372" 
d="M186 341q-37 0 -59.5 -22t-22.5 -56v-129q0 -34 22.5 -56t59.5 -22t59.5 22t22.5 56v129q0 34 -22.5 56t-59.5 22zM186 403q63 0 104.5 -39t41.5 -99v-132q0 -60 -41.5 -99.5t-104.5 -39.5t-104.5 39.5t-41.5 99.5v132q0 60 41.5 99t104.5 39z" />
    <glyph glyph-name="one.denom" horiz-adv-x="293" 
d="M25 0v61h103v275h-90v61h154v-336h88v-61h-255z" />
    <glyph glyph-name="two.denom" horiz-adv-x="293" 
d="M29 0v56l126 147q40 45 40 78q0 27 -18 43t-48 16q-51 0 -92 -38v71q42 30 97 30q60 0 93 -31.5t33 -79.5q0 -57 -50 -115l-99 -115h146v-62h-228z" />
    <glyph glyph-name="three.denom" horiz-adv-x="294" 
d="M66 175v62h61q25 0 42 14.5t17 36.5q0 23 -17.5 37t-46.5 14q-51 0 -82 -23v71q32 16 83 16q57 0 93 -30.5t36 -76.5q0 -63 -52 -89q63 -26 63 -98q0 -50 -39 -82.5t-98 -32.5q-51 0 -91 18v75q38 -29 88 -29q32 0 53.5 16.5t21.5 42.5t-20 42t-51 16h-61z" />
    <glyph glyph-name="four.denom" horiz-adv-x="347" 
d="M324 82h-55v-82h-64v82h-189v55l189 260h64v-253h55v-62zM84 144h121v164z" />
    <glyph glyph-name="five.denom" horiz-adv-x="310" 
d="M272 336h-137l-12 -83h1q71 0 112.5 -34.5t41.5 -90.5q0 -64 -41 -99t-104 -35q-56 0 -104 27v79q47 -42 101 -42q34 0 58 19.5t24 50.5q0 65 -99 65h-56l21 204h194v-61z" />
    <glyph glyph-name="six.denom" horiz-adv-x="346" 
d="M254 397l-91 -128q4 1 13 1q67 0 107.5 -40t40.5 -96q0 -59 -43 -99.5t-105 -40.5q-63 0 -106 40.5t-43 99.5q0 44 28 85l123 178h76zM259 134q0 32 -24 54t-59 22q-36 0 -60 -22t-24 -54t24 -54t60 -22q35 0 59 22t24 54z" />
    <glyph glyph-name="seven.denom" horiz-adv-x="259" 
d="M244 343l-134 -343h-74l138 336h-152v61h222v-54z" />
    <glyph glyph-name="eight.denom" horiz-adv-x="331" 
d="M44 295q0 46 35 77t86 31t86.5 -31t35.5 -77q0 -57 -51 -82q65 -30 65 -98q0 -52 -39 -86.5t-97 -34.5q-57 0 -96 34.5t-39 86.5q0 68 65 98q-51 25 -51 82zM91 116q0 -27 21.5 -46t52.5 -19q32 0 53.5 19t21.5 46t-21.5 46t-53.5 19q-31 0 -52.5 -19t-21.5 -46zM105 294
q0 -23 17 -38t44 -15q26 0 43 15.5t17 37.5t-17 37t-43 15t-43.5 -15t-17.5 -37z" />
    <glyph glyph-name="nine.denom" horiz-adv-x="346" 
d="M92 0l90 127h-12q-67 0 -107.5 40t-40.5 96q0 60 43 100.5t105 40.5q63 0 106 -40.5t43 -100.5q0 -41 -28 -85l-123 -178h-76zM87 263q0 -32 24 -53.5t59 -21.5q36 0 60 21.5t24 53.5t-24 54.5t-60 22.5q-35 0 -59 -22.5t-24 -54.5z" />
    <glyph glyph-name="zero.num" horiz-adv-x="372" 
d="M186 624q-37 0 -59.5 -22t-22.5 -56v-129q0 -34 22.5 -56t59.5 -22t59.5 22t22.5 56v129q0 34 -22.5 56t-59.5 22zM186 686q63 0 104.5 -39t41.5 -99v-132q0 -60 -41.5 -99.5t-104.5 -39.5t-104.5 39.5t-41.5 99.5v132q0 60 41.5 99t104.5 39z" />
    <glyph glyph-name="one.num" horiz-adv-x="293" 
d="M26 283v61h103v275h-90v61h154v-336h88v-61h-255z" />
    <glyph glyph-name="two.num" horiz-adv-x="293" 
d="M29 283v56l126 147q40 45 40 78q0 27 -18 43t-48 16q-51 0 -92 -38v71q42 30 97 30q60 0 93 -31.5t33 -79.5q0 -57 -50 -115l-99 -115h146v-62h-228z" />
    <glyph glyph-name="three.num" horiz-adv-x="294" 
d="M66 458v62h61q25 0 42 14.5t17 36.5q0 23 -17.5 37t-46.5 14q-51 0 -82 -23v71q32 16 83 16q57 0 93 -30.5t36 -76.5q0 -63 -52 -89q63 -26 63 -98q0 -50 -39 -82.5t-98 -32.5q-51 0 -91 18v75q38 -29 88 -29q32 0 53.5 16.5t21.5 42.5t-20 42t-51 16h-61z" />
    <glyph glyph-name="four.num" horiz-adv-x="348" 
d="M324 365h-55v-82h-64v82h-189v55l189 260h64v-253h55v-62zM84 427h121v164z" />
    <glyph glyph-name="five.num" horiz-adv-x="310" 
d="M272 619h-137l-12 -83h1q71 0 112.5 -34.5t41.5 -90.5q0 -64 -41 -99t-104 -35q-56 0 -104 27v79q47 -42 101 -42q34 0 58 19.5t24 50.5q0 65 -99 65h-56l21 204h194v-61z" />
    <glyph glyph-name="six.num" horiz-adv-x="346" 
d="M254 680l-91 -128q4 1 13 1q67 0 107.5 -40t40.5 -96q0 -59 -43 -99.5t-105 -40.5q-63 0 -106 40.5t-43 99.5q0 44 28 85l123 178h76zM259 417q0 32 -24 54t-59 22q-36 0 -60 -22t-24 -54t24 -54t60 -22q35 0 59 22t24 54z" />
    <glyph glyph-name="seven.num" horiz-adv-x="260" 
d="M244 626l-134 -343h-74l138 336h-152v61h222v-54z" />
    <glyph glyph-name="eight.num" horiz-adv-x="331" 
d="M44 578q0 46 35 77t86 31t86.5 -31t35.5 -77q0 -56 -51 -82q65 -30 65 -98q0 -52 -39 -86.5t-97 -34.5q-57 0 -96 34.5t-39 86.5q0 68 65 98q-51 25 -51 82zM91 399q0 -27 21.5 -46t52.5 -19q32 0 53.5 19t21.5 46t-21.5 46t-53.5 19q-31 0 -52.5 -19t-21.5 -46zM105 577
q0 -23 17 -38t44 -15q26 0 43 15.5t17 37.5t-17 37t-43 15t-43.5 -15t-17.5 -37z" />
    <glyph glyph-name="nine.num" horiz-adv-x="346" 
d="M92 283l90 127h-12q-67 0 -107.5 40t-40.5 96q0 60 43 100.5t105 40.5q63 0 106 -40.5t43 -100.5q0 -41 -28 -85l-123 -178h-76zM87 546q0 -32 24 -53.5t59 -21.5q36 0 60 21.5t24 53.5t-24 54.5t-60 22.5q-35 0 -59 -22.5t-24 -54.5z" />
    <glyph glyph-name="parenleft.case" horiz-adv-x="268" 
d="M113 332q0 -241 128 -415l-48 -33q-67 84 -108.5 203t-41.5 245q0 127 41.5 246t108.5 203l48 -33q-128 -174 -128 -416z" />
    <glyph glyph-name="parenright.case" horiz-adv-x="268" 
d="M155 333q0 241 -128 415l48 33q67 -84 108.5 -203t41.5 -245q0 -127 -41.5 -246t-108.5 -203l-48 33q128 174 128 416z" />
    <glyph glyph-name="hyphen.case" horiz-adv-x="383" 
d="M317 302h-253v78h253v-78z" />
    <glyph glyph-name="bracketleft.case" horiz-adv-x="291" 
d="M83 780h176v-56h-116v-783h116v-56h-176v895z" />
    <glyph glyph-name="bracketright.case" horiz-adv-x="291" 
d="M208 -115h-176v56h116v783h-116v56h176v-895z" />
    <glyph glyph-name="braceleft.case" horiz-adv-x="321" 
d="M15 305v55h30q81 0 81 97v177q0 80 31.5 113t94.5 33h37v-54h-27q-38 0 -57 -21t-19 -75v-183q0 -96 -70 -115q70 -19 70 -115v-181q0 -55 19 -76t57 -21h27v-54h-36q-64 0 -95.5 33t-31.5 115v174q0 98 -81 98h-30z" />
    <glyph glyph-name="bar.case" horiz-adv-x="226" 
d="M143 780v-895h-60v895h60z" />
    <glyph glyph-name="braceright.case" horiz-adv-x="321" 
d="M306 360v-55h-30q-81 0 -81 -97v-177q0 -80 -31.5 -113t-94.5 -33h-37v54h27q38 0 57 21t19 75v183q0 96 70 115q-70 19 -70 115v181q0 55 -19 76t-57 21h-27v54h36q64 0 95.5 -33t31.5 -115v-174q0 -98 81 -98h30z" />
    <glyph glyph-name="guilsinglleft.case" horiz-adv-x="320" 
d="M51 341l162 214l45 -35l-121 -180l121 -179l-45 -34z" />
    <glyph glyph-name="guilsinglright.case" horiz-adv-x="319" 
d="M268 340l-162 -214l-45 35l121 180l-121 179l45 34z" />
    <glyph glyph-name="guillemotleft.case" horiz-adv-x="505" 
d="M51 341l162 214l45 -35l-121 -180l121 -179l-45 -34zM236 341l162 214l45 -35l-121 -180l121 -179l-45 -34z" />
    <glyph glyph-name="guillemotright.case" horiz-adv-x="504" 
d="M268 340l-162 -214l-45 35l121 180l-121 179l45 34zM453 340l-162 -214l-45 35l121 180l-121 179l45 34z" />
    <glyph glyph-name="endash.case" horiz-adv-x="588" 
d="M66 378h457v-74h-457v74z" />
    <glyph glyph-name="emdash.case" horiz-adv-x="728" 
d="M66 378h597v-74h-597v74z" />
    <glyph glyph-name="bullet.case" horiz-adv-x="371" 
d="M185 233q-48 0 -79.5 30.5t-31.5 76.5t31.5 76.5t79.5 30.5q49 0 80 -30t31 -77t-31 -77t-80 -30z" />
    <glyph glyph-name="periodcentered.case" horiz-adv-x="247" 
d="M60 342q0 28 18 46t46 18q27 0 45.5 -18t18.5 -46q0 -27 -18.5 -45t-45.5 -18q-28 0 -46 18t-18 45z" />
    <glyph glyph-name="a.alt" horiz-adv-x="613" 
d="M459 244q0 72 -48 121.5t-120 49.5q-71 0 -119.5 -49.5t-48.5 -121.5t48.5 -122.5t119.5 -50.5q72 0 120 50.5t48 122.5zM542 0h-83v97q-27 -50 -74 -78.5t-107 -28.5q-104 0 -172 72.5t-68 181.5q0 107 68 180t171 73q60 0 107.5 -29t74.5 -79v98h83v-487z" />
    <glyph glyph-name="R.alt" horiz-adv-x="568" 
d="M88 0v680h206q97 0 155.5 -52.5t58.5 -142.5q0 -72 -40 -121t-108 -64l179 -300h-100l-167 291h-98v-291h-86zM419 482q0 55 -34.5 85.5t-89.5 30.5h-121v-230h121q55 0 89.5 30t34.5 84z" />
    <glyph glyph-name="agrave.alt" horiz-adv-x="613" 
d="M459 244q0 72 -48 121.5t-120 49.5q-71 0 -119.5 -49.5t-48.5 -121.5t48.5 -122.5t119.5 -50.5q72 0 120 50.5t48 122.5zM542 0h-83v97q-27 -50 -74 -78.5t-107 -28.5q-104 0 -172 72.5t-68 181.5q0 107 68 180t171 73q60 0 107.5 -29t74.5 -79v98h83v-487zM196 696h74
l76 -147h-66z" />
    <glyph glyph-name="aacute.alt" horiz-adv-x="613" 
d="M459 244q0 72 -48 121.5t-120 49.5q-71 0 -119.5 -49.5t-48.5 -121.5t48.5 -122.5t119.5 -50.5q72 0 120 50.5t48 122.5zM542 0h-83v97q-27 -50 -74 -78.5t-107 -28.5q-104 0 -172 72.5t-68 181.5q0 107 68 180t171 73q60 0 107.5 -29t74.5 -79v98h83v-487zM353 696h74
l-85 -147h-65z" />
    <glyph glyph-name="acircumflex.alt" horiz-adv-x="613" 
d="M459 244q0 72 -48 121.5t-120 49.5q-71 0 -119.5 -49.5t-48.5 -121.5t48.5 -122.5t119.5 -50.5q72 0 120 50.5t48 122.5zM542 0h-83v97q-27 -50 -74 -78.5t-107 -28.5q-104 0 -172 72.5t-68 181.5q0 107 68 180t171 73q60 0 107.5 -29t74.5 -79v98h83v-487zM256 696h85
l98 -147h-67l-73 106l-74 -106h-67z" />
    <glyph glyph-name="atilde.alt" horiz-adv-x="613" 
d="M459 244q0 72 -48 121.5t-120 49.5q-71 0 -119.5 -49.5t-48.5 -121.5t48.5 -122.5t119.5 -50.5q72 0 120 50.5t48 122.5zM542 0h-83v97q-27 -50 -74 -78.5t-107 -28.5q-104 0 -172 72.5t-68 181.5q0 107 68 180t171 73q60 0 107.5 -29t74.5 -79v98h83v-487zM439 639v-64
q-34 27 -70 27q-22 0 -66.5 -19t-74.5 -19q-43 0 -67 22v63q25 -25 67 -25q24 0 66 18.5t75 18.5q36 0 70 -22z" />
    <glyph glyph-name="adieresis.alt" horiz-adv-x="613" 
d="M459 244q0 72 -48 121.5t-120 49.5q-71 0 -119.5 -49.5t-48.5 -121.5t48.5 -122.5t119.5 -50.5q72 0 120 50.5t48 122.5zM542 0h-83v97q-27 -50 -74 -78.5t-107 -28.5q-104 0 -172 72.5t-68 181.5q0 107 68 180t171 73q60 0 107.5 -29t74.5 -79v98h83v-487zM154 634
q0 22 14.5 37t36.5 15t36.5 -15t14.5 -37t-14.5 -36.5t-36.5 -14.5t-36.5 14.5t-14.5 36.5zM344 634q0 22 14.5 37t35.5 15q23 0 37.5 -15t14.5 -37t-14.5 -36.5t-37.5 -14.5q-21 0 -35.5 14.5t-14.5 36.5z" />
    <glyph glyph-name="amacron.alt" horiz-adv-x="613" 
d="M459 244q0 72 -48 121.5t-120 49.5q-71 0 -119.5 -49.5t-48.5 -121.5t48.5 -122.5t119.5 -50.5q72 0 120 50.5t48 122.5zM542 0h-83v97q-27 -50 -74 -78.5t-107 -28.5q-104 0 -172 72.5t-68 181.5q0 107 68 180t171 73q60 0 107.5 -29t74.5 -79v98h83v-487zM160 654h279
v-58h-279v58z" />
    <glyph glyph-name="abreve.alt" horiz-adv-x="613" 
d="M459 244q0 72 -48 121.5t-120 49.5q-71 0 -119.5 -49.5t-48.5 -121.5t48.5 -122.5t119.5 -50.5q72 0 120 50.5t48 122.5zM542 0h-83v97q-27 -50 -74 -78.5t-107 -28.5q-104 0 -172 72.5t-68 181.5q0 107 68 180t171 73q60 0 107.5 -29t74.5 -79v98h83v-487zM384 687h52
q0 -61 -37 -99t-100 -38q-62 0 -98 38t-36 99h50q2 -37 24 -59.5t60 -22.5q39 0 61 22.5t24 59.5z" />
    <glyph glyph-name="aring.alt" horiz-adv-x="613" 
d="M459 244q0 72 -48 121.5t-120 49.5q-71 0 -119.5 -49.5t-48.5 -121.5t48.5 -122.5t119.5 -50.5q72 0 120 50.5t48 122.5zM542 0h-83v97q-27 -50 -74 -78.5t-107 -28.5q-104 0 -172 72.5t-68 181.5q0 107 68 180t171 73q60 0 107.5 -29t74.5 -79v98h83v-487zM199 632
q0 41 27.5 68.5t72.5 27.5q47 0 75 -27.5t28 -68.5q0 -40 -28 -68t-75 -28q-45 0 -72.5 28t-27.5 68zM245 632q0 -23 15 -38t39 -15q26 0 41 15t15 38t-15 38t-41 15q-24 0 -39 -15t-15 -38z" />
    <glyph glyph-name="aogonek.alt" horiz-adv-x="613" 
d="M542 0l-77 -54q-34 -24 -34 -52q0 -34 36 -34q31 0 68 30v-65q-42 -21 -78 -21q-45 0 -71.5 20.5t-26.5 57.5q0 52 53 85l52 33h-5v97q-27 -50 -74 -78.5t-107 -28.5q-104 0 -172 72.5t-68 181.5q0 107 68 180t171 73q60 0 107.5 -29t74.5 -79v98h83v-487zM459 244
q0 72 -48 121.5t-120 49.5q-71 0 -119.5 -49.5t-48.5 -121.5t48.5 -122.5t119.5 -50.5q72 0 120 50.5t48 122.5z" />
    <glyph glyph-name="Racute.alt" horiz-adv-x="568" 
d="M88 0v680h206q97 0 155.5 -52.5t58.5 -142.5q0 -72 -40 -121t-108 -64l179 -300h-100l-167 291h-98v-291h-86zM419 482q0 55 -34.5 85.5t-89.5 30.5h-121v-230h121q55 0 89.5 30t34.5 84zM301 874h74l-85 -147h-65z" />
    <glyph glyph-name="Rcaron.alt" horiz-adv-x="568" 
d="M88 0v680h206q97 0 155.5 -52.5t58.5 -142.5q0 -72 -40 -121t-108 -64l179 -300h-100l-167 291h-98v-291h-86zM419 482q0 55 -34.5 85.5t-89.5 30.5h-121v-230h121q55 0 89.5 30t34.5 84zM317 727h-85l-98 147h67l74 -107l74 107h66z" />
    <glyph glyph-name="Rcommaaccent.alt" horiz-adv-x="568" 
d="M88 0v680h206q97 0 155.5 -52.5t58.5 -142.5q0 -72 -40 -121t-108 -64l179 -300h-100l-167 291h-98v-291h-86zM419 482q0 55 -34.5 85.5t-89.5 30.5h-121v-230h121q55 0 89.5 30t34.5 84zM297 -215h-66l25 148h83z" />
    </font>
</defs>
</svg>
